<?xml version="1.0" encoding="UTF-8" standalone="no"?>
<svg
   xmlns:dc="http://purl.org/dc/elements/1.1/"
   xmlns:cc="http://creativecommons.org/ns#"
   xmlns:rdf="http://www.w3.org/1999/02/22-rdf-syntax-ns#"
   xmlns:svg="http://www.w3.org/2000/svg"
   xmlns="http://www.w3.org/2000/svg"
   xmlns:xlink="http://www.w3.org/1999/xlink"
   xmlns:sodipodi="http://sodipodi.sourceforge.net/DTD/sodipodi-0.dtd"
   xmlns:inkscape="http://www.inkscape.org/namespaces/inkscape"
   width="450"
   height="450"
   viewbox="0 0 512 512"
   version="1.1"
   id="svg61"
   sodipodi:docname="bined-icon-compact.svg"
   inkscape:version="1.0.2 (e86c870879, 2021-01-15)">
  <metadata
     id="metadata65">
    <rdf:RDF>
      <cc:Work
         rdf:about="">
        <dc:format>image/svg+xml</dc:format>
        <dc:type
           rdf:resource="http://purl.org/dc/dcmitype/StillImage" />
        <dc:title></dc:title>
      </cc:Work>
    </rdf:RDF>
  </metadata>
  <sodipodi:namedview
     pagecolor="#ffffff"
     bordercolor="#666666"
     borderopacity="1"
     objecttolerance="10"
     gridtolerance="10"
     guidetolerance="10"
     inkscape:pageopacity="0"
     inkscape:pageshadow="2"
     inkscape:window-width="2560"
     inkscape:window-height="1393"
     id="namedview63"
     showgrid="false"
     inkscape:zoom="1.4355469"
     inkscape:cx="269.71188"
     inkscape:cy="264.46616"
     inkscape:window-x="0"
     inkscape:window-y="0"
     inkscape:window-maximized="1"
     inkscape:current-layer="svg61" />
  <defs
     id="defs18">
    <path
       d="M 0,0 H 512 V 512 H 0 Z"
       id="path_1" />
    <path
       d="M 77.0051,0 H 266.136 c 0.419,0 0.837,0.0102734 1.256,0.0308333 0.419,0.0205599 0.836,0.0513672 1.253,0.0924347 0.416,0.041055 0.832,0.092318 1.247,0.153789 0.414,0.061472 0.827,0.133073 1.238,0.214805 0.41,0.081732 0.819,0.17349 1.225,0.275286 0.407,0.101797 0.811,0.21349 1.212,0.335102 0.4,0.12162 0.798,0.25298 1.193,0.39412 0.395,0.14113 0.785,0.29186 1.172,0.45218 0.387,0.16033 0.77,0.33004 1.149,0.50916 0.379,0.17911 0.752,0.36742 1.121,0.56489 0.37,0.19749 0.734,0.40392 1.094,0.6193 0.36,0.21538 0.713,0.43944 1.062,0.67219 0.348,0.23275 0.69,0.47391 1.027,0.72346 0.337,0.24956 0.667,0.50723 0.99,0.773 0.324,0.26577 0.642,0.53932 0.952,0.82065 0.31,0.28134 0.613,0.57013 0.91,0.86638 0.296,0.29621 0.584,0.59953 0.865,0.90996 0.282,0.3104 0.556,0.62753 0.821,0.95135 0.266,0.32386 0.524,0.65401 0.773,0.99051 0.25,0.3365 0.492,0.6789 0.724,1.0272 0.233,0.3484 0.457,0.7022 0.672,1.0615 0.215,0.3594 0.422,0.7238 0.62,1.0932 0.197,0.3695 0.385,0.7436 0.565,1.1223 0.178,0.3787 0.348,0.7616 0.508,1.1487 0.161,0.387 0.311,0.7777 0.452,1.1722 0.142,0.3945 0.273,0.7921 0.395,1.193 0.121,0.4009 0.233,0.8045 0.334,1.2108 0.103,0.4065 0.195,0.8151 0.277,1.2259 0.082,0.411 0.153,0.8237 0.215,1.2381 0.061,0.4143 0.112,0.83 0.153,1.2469 0.041,0.4169 0.072,0.8346 0.092,1.253 0.021,0.4185 0.031,0.8372 0.031,1.2561 V 209.164 c 0,0.383 -0.009,0.767 -0.029,1.15 -0.018,0.384 -0.046,0.767 -0.083,1.149 -0.038,0.381 -0.085,0.762 -0.142,1.142 -0.056,0.38 -0.121,0.758 -0.196,1.135 -0.075,0.375 -0.16,0.749 -0.253,1.123 -0.093,0.372 -0.196,0.741 -0.307,1.109 -0.112,0.367 -0.232,0.731 -0.36,1.092 -0.13,0.362 -0.268,0.72 -0.415,1.074 -0.147,0.355 -0.302,0.706 -0.466,1.053 -0.165,0.347 -0.338,0.69 -0.519,1.029 -0.181,0.338 -0.369,0.671 -0.566,1 -0.198,0.33 -0.404,0.654 -0.616,0.973 -0.213,0.319 -0.434,0.633 -0.663,0.942 -0.228,0.308 -0.464,0.61 -0.708,0.906 -0.243,0.297 -0.494,0.588 -0.753,0.872 -0.257,0.285 -0.521,0.563 -0.793,0.835 -0.272,0.27 -0.55,0.535 -0.833,0.793 -0.284,0.257 -0.575,0.508 -0.872,0.751 -0.297,0.244 -0.6,0.48 -0.908,0.708 -0.308,0.229 -0.622,0.45 -0.94,0.664 -0.32,0.213 -0.644,0.418 -0.973,0.615 -0.33,0.198 -0.664,0.387 -1.002,0.568 -0.339,0.181 -0.682,0.353 -1.029,0.517 -0.346,0.164 -0.696,0.319 -1.051,0.466 -0.355,0.148 -0.713,0.286 -1.074,0.415 -0.362,0.13 -0.726,0.25 -1.094,0.362 -0.367,0.111 -0.737,0.214 -1.109,0.307 -0.372,0.093 -0.747,0.177 -1.123,0.251 -0.377,0.075 -0.755,0.141 -1.135,0.198 -0.379,0.055 -0.76,0.102 -1.142,0.14 -0.382,0.037 -0.765,0.066 -1.149,0.085 -0.383,0.018 -0.766,0.028 -1.15,0.029 h -0.003 c -0.384,0 -0.767,0.009 -1.151,0.027 -0.383,0.02 -0.766,0.048 -1.148,0.086 -0.382,0.037 -0.763,0.084 -1.142,0.14 -0.38,0.056 -0.758,0.122 -1.135,0.198 -0.376,0.074 -0.751,0.157 -1.123,0.25 -0.372,0.094 -0.742,0.196 -1.109,0.308 -0.368,0.111 -0.732,0.232 -1.092,0.361 -0.362,0.129 -0.721,0.267 -1.076,0.415 -0.353,0.147 -0.704,0.302 -1.051,0.466 -0.347,0.164 -0.69,0.336 -1.029,0.517 -0.338,0.181 -0.672,0.371 -1.002,0.569 -0.329,0.196 -0.652,0.401 -0.971,0.614 -0.32,0.214 -0.634,0.435 -0.942,0.664 -0.308,0.228 -0.611,0.465 -0.908,0.708 -0.296,0.244 -0.586,0.494 -0.87,0.751 -0.285,0.258 -0.563,0.523 -0.835,0.794 -0.271,0.272 -0.535,0.55 -0.794,0.834 -0.257,0.285 -0.507,0.575 -0.75,0.872 -0.244,0.296 -0.48,0.598 -0.709,0.907 -0.228,0.308 -0.45,0.622 -0.664,0.942 -0.212,0.318 -0.418,0.642 -0.616,0.972 -0.197,0.329 -0.385,0.663 -0.566,1 -0.181,0.34 -0.354,0.683 -0.517,1.03 -0.165,0.347 -0.321,0.698 -0.468,1.053 -0.147,0.354 -0.285,0.711 -0.413,1.073 -0.13,0.361 -0.25,0.725 -0.362,1.092 -0.111,0.368 -0.214,0.738 -0.307,1.11 -0.093,0.373 -0.178,0.747 -0.253,1.123 -0.074,0.376 -0.139,0.755 -0.196,1.135 -0.056,0.38 -0.103,0.76 -0.142,1.141 -0.037,0.383 -0.065,0.766 -0.083,1.149 -0.02,0.383 -0.029,0.767 -0.029,1.15 v 0.004 c 0,0.384 -0.009,0.768 -0.028,1.152 -0.019,0.383 -0.047,0.765 -0.085,1.147 -0.037,0.382 -0.084,0.763 -0.14,1.143 -0.057,0.379 -0.123,0.757 -0.198,1.133 -0.075,0.377 -0.159,0.751 -0.252,1.123 -0.094,0.373 -0.196,0.743 -0.306,1.11 -0.111,0.367 -0.232,0.732 -0.362,1.094 -0.129,0.36 -0.268,0.718 -0.414,1.073 -0.147,0.355 -0.303,0.706 -0.466,1.053 -0.164,0.347 -0.337,0.69 -0.517,1.028 -0.181,0.339 -0.371,0.672 -0.569,1.001 -0.197,0.329 -0.402,0.653 -0.616,0.973 -0.213,0.319 -0.433,0.632 -0.662,0.94 -0.229,0.309 -0.465,0.611 -0.708,0.908 -0.244,0.297 -0.494,0.588 -0.751,0.873 -0.259,0.284 -0.524,0.562 -0.796,0.832 -0.27,0.272 -0.548,0.537 -0.832,0.794 -0.285,0.258 -0.576,0.509 -0.873,0.753 -0.297,0.243 -0.599,0.479 -0.907,0.708 -0.308,0.229 -0.621,0.449 -0.941,0.662 -0.318,0.214 -0.643,0.419 -0.973,0.616 -0.329,0.198 -0.662,0.388 -1.001,0.569 -0.338,0.18 -0.681,0.353 -1.028,0.517 -0.347,0.163 -0.698,0.319 -1.053,0.466 -0.354,0.146 -0.712,0.285 -1.073,0.414 -0.362,0.129 -0.726,0.249 -1.093,0.36 -0.367,0.112 -0.738,0.214 -1.111,0.308 -0.372,0.093 -0.746,0.177 -1.123,0.252 -0.375,0.075 -0.753,0.141 -1.133,0.196 -0.38,0.057 -0.761,0.105 -1.143,0.142 -0.382,0.038 -0.764,0.066 -1.147,0.085 -0.384,0.019 -0.768,0.028 -1.152,0.028 H 25.5983 c -0.4189,0 -0.8376,-0.011 -1.2561,-0.031 -0.4184,-0.02 -0.8361,-0.051 -1.253,-0.092 -0.4169,-0.041 -0.8326,-0.092 -1.2469,-0.154 -0.4144,-0.061 -0.8271,-0.133 -1.2381,-0.215 -0.4108,-0.082 -0.8194,-0.173 -1.2259,-0.275 -0.4063,-0.102 -0.8099,-0.214 -1.2108,-0.336 -0.4009,-0.122 -0.7985,-0.253 -1.193,-0.394 -0.3945,-0.141 -0.7852,-0.292 -1.1722,-0.452 -0.3871,-0.161 -0.77,-0.33 -1.1487,-0.509 -0.3787,-0.179 -0.7528,-0.367 -1.1223,-0.565 -0.3694,-0.198 -0.7338,-0.404 -1.0932,-0.619 -0.3593,-0.215 -0.7131,-0.439 -1.0615,-0.673 -0.3483,-0.232 -0.6907,-0.473 -1.0272,-0.723 -0.3365,-0.25 -0.66665,-0.507 -0.99051,-0.772 -0.32382,-0.266 -0.64095,-0.54 -0.95135,-0.821 C 8.09711,272.612 7.79379,272.323 7.49755,272.027 7.20133,271.732 6.91254,271.428 6.6312,271.118 6.34987,270.807 6.07631,270.49 5.81055,270.165 5.54478,269.842 5.28711,269.512 5.03755,269.176 4.788,268.839 4.54684,268.496 4.31409,268.148 4.08134,267.8 3.85728,267.446 3.6419,267.087 3.42652,266.727 3.22009,266.363 3.0226,265.994 2.82513,265.625 2.63682,265.25 2.45771,264.871 2.27859,264.492 2.10888,264.11 1.94855,263.723 1.78823,263.336 1.6375,262.945 1.49637,262.55 1.35523,262.155 1.22387,261.758 1.10225,261.357 0.980638,260.957 0.868945,260.553 0.767148,260.147 0.665352,259.74 0.573594,259.331 0.491862,258.92 0.41013,258.509 0.338529,258.097 0.277057,257.683 0.215586,257.269 0.164323,256.853 0.123268,256.435 0.0822005,256.019 0.0513932,255.601 0.0308333,255.183 0.0102734,254.764 0,254.345 0,253.926 V 77.6477 c 0,-0.4189 0.0102734,-0.8376 0.0308333,-1.2559 0.0205599,-0.4185 0.0513672,-0.8362 0.0924347,-1.2531 0.041055,-0.417 0.092318,-0.8326 0.153789,-1.247 0.061472,-0.4144 0.133073,-0.827 0.214805,-1.2379 0.081732,-0.4109 0.17349,-0.8196 0.275286,-1.2259 0.101797,-0.4064 0.21349,-0.8101 0.335102,-1.211 0.12162,-0.4008 0.25298,-0.7985 0.39412,-1.193 0.14113,-0.3944 0.29186,-0.7852 0.45218,-1.1721 0.16033,-0.3871 0.33004,-0.77 0.50916,-1.1488 0.17911,-0.3786 0.36742,-0.7527 0.56489,-1.1221 0.19749,-0.3696 0.40392,-0.734 0.6193,-1.0933 0.21538,-0.3593 0.43944,-0.7132 0.67219,-1.0616 0.23275,-0.3482 0.47391,-0.6906 0.72346,-1.0272 0.24956,-0.3364 0.50723,-0.6665 0.773,-0.9904 0.26576,-0.3239 0.53932,-0.641 0.82065,-0.9514 0.28134,-0.3104 0.57013,-0.6137 0.86638,-0.91 0.29621,-0.2962 0.59953,-0.585 0.90996,-0.8663 0.3104,-0.2814 0.62753,-0.555 0.95135,-0.8208 0.32386,-0.2656 0.65401,-0.5233 0.99051,-0.7729 0.3365,-0.2495 0.6789,-0.4907 1.0272,-0.7235 0.3484,-0.2326 0.7022,-0.4567 1.0615,-0.6721 0.3594,-0.2153 0.7238,-0.4218 1.0932,-0.6193 0.3695,-0.1975 0.7436,-0.3858 1.1223,-0.5649 0.3787,-0.1791 0.7616,-0.3488 1.1487,-0.5091 0.387,-0.1603 0.7777,-0.3111 1.1722,-0.4523 0.3945,-0.1411 0.7921,-0.2724 1.193,-0.394 0.4009,-0.1217 0.8045,-0.2334 1.2108,-0.3352 0.4065,-0.1017 0.8151,-0.1935 1.2259,-0.2753 0.411,-0.0817 0.8237,-0.1533 1.2381,-0.2147 0.4143,-0.0616 0.83,-0.1128 1.2469,-0.1538 0.4169,-0.0411 0.8346,-0.0719 1.253,-0.0925 0.4185,-0.0206 0.8372,-0.0309 1.2561,-0.0309 h 0.2103 c 0.4189,0 0.8376,-0.0102 1.2561,-0.0307 0.4183,-0.0206 0.836,-0.0514 1.253,-0.0925 0.4169,-0.0411 0.8325,-0.0923 1.2469,-0.1538 0.4144,-0.0614 0.827,-0.133 1.238,-0.2148 0.4108,-0.0817 0.8195,-0.1735 1.2259,-0.2753 0.4063,-0.1017 0.8099,-0.2134 1.2109,-0.3351 0.4008,-0.1216 0.7985,-0.2529 1.1929,-0.394 0.3945,-0.1412 0.7853,-0.292 1.1723,-0.4523 0.3871,-0.1603 0.77,-0.33 1.1486,-0.5091 0.3788,-0.1792 0.7529,-0.3675 1.1223,-0.5649 0.3695,-0.1975 0.7339,-0.404 1.0932,-0.6193 0.3594,-0.2154 0.7132,-0.4395 1.0615,-0.6723 0.3484,-0.2327 0.6908,-0.4738 1.0272,-0.7235 0.3366,-0.2495 0.6668,-0.5071 0.9906,-0.7729 0.3238,-0.2658 0.6409,-0.5393 0.9513,-0.8206 0.3104,-0.2813 0.6137,-0.5702 0.91,-0.8664 0.2963,-0.2962 0.585,-0.5995 0.8663,-0.91 0.2814,-0.3104 0.5549,-0.6275 0.8207,-0.9513 0.2658,-0.3238 0.5235,-0.654 0.773,-0.9906 0.2496,-0.3364 0.4908,-0.6788 0.7234,-1.0272 0.2328,-0.3483 0.4569,-0.7021 0.6723,-1.0614 0.2154,-0.3594 0.4218,-0.7239 0.6192,-1.0933 0.1975,-0.3694 0.3858,-0.7435 0.5649,-1.1223 0.1792,-0.3786 0.3489,-0.7615 0.5092,-1.1486 0.1604,-0.3871 0.3111,-0.7778 0.4521,-1.1723 0.1412,-0.3943 0.2726,-0.792 0.3943,-1.193 0.1215,-0.4008 0.2332,-0.8044 0.335,-1.2108 0.1018,-0.4064 0.1936,-0.8151 0.2753,-1.2259 0.0817,-0.4109 0.1533,-0.8236 0.2149,-1.238 0.0614,-0.4144 0.1127,-0.8301 0.1537,-1.2469 0.0411,-0.4169 0.0719,-0.8346 0.0924,-1.2531 0.0205,-0.4184 0.0309,-0.8371 0.0309,-1.2561 v -0.8528 c 0,-0.4189 0.0102,-0.8376 0.0308,-1.2561 0.0206,-0.4184 0.0514,-0.8361 0.0924,-1.253 0.041,-0.4169 0.0924,-0.8326 0.1539,-1.2469 0.0615,-0.4144 0.133,-0.8271 0.2147,-1.2381 0.0817,-0.4108 0.1735,-0.8194 0.2753,-1.2259 0.1018,-0.4063 0.2136,-0.8099 0.3352,-1.2108 0.1216,-0.4009 0.253,-0.7985 0.3941,-1.193 0.141,-0.3945 0.2917,-0.7852 0.4521,-1.1722 0.1604,-0.3871 0.3301,-0.77 0.5092,-1.1487 0.1791,-0.3787 0.3674,-0.7528 0.5649,-1.1223 0.1974,-0.3694 0.4038,-0.7338 0.6192,-1.0932 0.2154,-0.3593 0.4395,-0.7131 0.6723,-1.0615 0.2328,-0.3483 0.4739,-0.6907 0.7234,-1.0272 0.2495,-0.3365 0.5072,-0.66665 0.773,-0.99051 0.2658,-0.32382 0.5393,-0.64095 0.8207,-0.95135 0.2814,-0.31043 0.5701,-0.61375 0.8663,-0.90996 0.2963,-0.29625 0.5996,-0.58504 0.91,-0.86638 0.3104,-0.28133 0.6275,-0.55488 0.9513,-0.82065 0.3239,-0.26577 0.6541,-0.52344 0.9906,-0.773 C 62.0928,4.788 62.4352,4.54684 62.7835,4.31409 63.1319,4.08134 63.4857,3.85728 63.845,3.6419 64.2043,3.42652 64.5687,3.22009 64.9382,3.0226 65.3077,2.82513 65.6818,2.63682 66.0605,2.45771 66.4392,2.27859 66.8221,2.10888 67.209,1.94855 67.5961,1.78823 67.9869,1.6375 68.3814,1.49637 68.7758,1.35523 69.1735,1.22387 69.5743,1.10225 69.9753,0.980638 70.379,0.868945 70.7854,0.767148 71.1917,0.665352 71.6003,0.573594 72.0113,0.491862 72.4221,0.41013 72.8347,0.338529 73.2491,0.277057 73.6635,0.215586 74.0792,0.164323 74.4962,0.123268 74.9131,0.0822005 75.3307,0.0513932 75.7492,0.0308333 76.1676,0.0102734 76.5862,0 77.0051,0 Z"
       id="path_2" />
    <path
       d="m 196.876,8.76688 0.554,0.49893 c 0.415,0.37374 0.821,0.75749 1.217,1.15119 0.396,0.3936 0.783,0.7968 1.159,1.2095 0.377,0.4126 0.743,0.8343 1.098,1.2649 0.356,0.4307 0.701,0.8698 1.035,1.3174 0.335,0.4475 0.658,0.903 0.969,1.3664 0.312,0.4635 0.613,0.9343 0.901,1.4125 0.289,0.4781 0.566,0.9631 0.831,1.4548 0.265,0.4918 0.518,0.9898 0.758,1.494 0.241,0.5042 0.468,1.0139 0.684,1.5292 0.215,0.5155 0.418,1.0358 0.608,1.5611 0.19,0.5253 0.367,1.055 0.531,1.589 0.163,0.534 0.314,1.0717 0.452,1.6131 0.137,0.5414 0.261,1.0859 0.372,1.6334 0.111,0.5475 0.208,1.0974 0.292,1.6496 0.084,0.5523 0.154,1.1063 0.21,1.662 0.057,0.5557 0.1,1.1124 0.129,1.6703 0.029,0.5578 0.045,1.116 0.047,1.6747 0.002,0.5586 -0.01,1.1168 -0.036,1.6748 -0.025,0.558 -0.065,1.1151 -0.118,1.6711 -0.053,0.5561 -0.119,1.1106 -0.199,1.6633 -0.08,0.5529 -0.174,1.1034 -0.281,1.6516 -0.107,0.5482 -0.228,1.0935 -0.362,1.6358 -0.134,0.5422 -0.281,1.0808 -0.442,1.6159 -0.16,0.5352 -0.333,1.066 -0.52,1.5924 -0.186,0.5266 -0.386,1.0483 -0.598,1.5651 -0.212,0.5167 -0.436,1.028 -0.673,1.5337 -0.238,0.5057 -0.487,1.0053 -0.749,1.4989 -0.262,0.4935 -0.535,0.9802 -0.821,1.4603 -0.285,0.48 -0.583,0.9528 -0.891,1.4182 -0.309,0.4655 -0.629,0.9231 -0.961,1.373 -0.331,0.4497 -0.673,0.891 -1.026,1.3239 -0.353,0.433 -0.716,0.8571 -1.09,1.2722 L 51.2836,222.587 0,176.411 148.672,11.2931 c 0.374,-0.4151 0.758,-0.8208 1.152,-1.2171 0.393,-0.3963 0.797,-0.78265 1.209,-1.15906 0.413,-0.37648 0.835,-0.74266 1.265,-1.09849 0.431,-0.35575 0.87,-0.70073 1.317,-1.03492 0.448,-0.33421 0.903,-0.65723 1.367,-0.96905 0.463,-0.31191 0.934,-0.61223 1.412,-0.90096 0.479,-0.28873 0.964,-0.56559 1.455,-0.83055 0.492,-0.2649 0.99,-0.51759 1.494,-0.75809 0.504,-0.2405 1.014,-0.46847 1.53,-0.6839 0.515,-0.21545 1.035,-0.41812 1.561,-0.60805 0.525,-0.18983 1.054,-0.36672 1.589,-0.53064 0.533,-0.16389 1.071,-0.31459 1.613,-0.45211 0.541,-0.137485 1.085,-0.261625 1.633,-0.37238 0.547,-0.110769 1.097,-0.208034 1.65,-0.29181 0.552,-0.083776 1.106,-0.153946 1.662,-0.210521 0.555,-0.056563 1.112,-0.0994664 1.67,-0.1286982 0.558,-0.0292187 1.116,-0.04476559 1.675,-0.046588508 0.558,-0.001822922 1.116,0.010039108 1.674,0.035625008 0.558,0.0255729 1.115,0.0648437 1.672,0.1177867 0.556,0.052916 1.11,0.119466 1.663,0.199622 0.553,0.080156 1.103,0.173815 1.651,0.281003 0.549,0.1072 1.094,0.227747 1.636,0.361641 0.542,0.13397 1.081,0.28115 1.616,0.44155 0.535,0.16039 1.066,0.33383 1.593,0.5203 0.526,0.18648 1.048,0.38574 1.565,0.59777 0.516,0.21211 1.028,0.43676 1.533,0.67393 0.506,0.23717 1.006,0.48659 1.499,0.74826 0.494,0.26176 0.98,0.53543 1.46,0.82102 0.481,0.28559 0.953,0.58278 1.419,0.89157 0.465,0.30887 0.923,0.62895 1.373,0.96024 0.449,0.33121 0.891,0.67332 1.324,1.02631 0.433,0.35297 0.857,0.71633 1.272,1.09007 z"
       id="path_3" />
    <rect
       width="512"
       height="512"
       id="artboard_1"
       x="0"
       y="0" />
    <clipPath
       id="clip_1">
      <use
         xlink:href="#artboard_1"
         clip-rule="evenodd"
         id="use6"
         x="0"
         y="0"
         width="100%"
         height="100%" />
    </clipPath>
    <clipPath
       id="mask_1">
      <use
         xlink:href="#path_1"
         id="use9"
         x="0"
         y="0"
         width="100%"
         height="100%" />
    </clipPath>
    <clipPath
       id="mask_2">
      <use
         xlink:href="#path_2"
         id="use12"
         x="0"
         y="0"
         width="100%"
         height="100%" />
    </clipPath>
    <clipPath
       id="mask_3">
      <use
         xlink:href="#path_3"
         id="use15"
         x="0"
         y="0"
         width="100%"
         height="100%" />
    </clipPath>
  </defs>
  <g
     id="512x512"
     clip-path="url(#clip_1)"
     transform="translate(-49,-32)">
    <g
       id="Bined-Icon">
      <g
         id="g57">
        <path
           d="M 0,0 H 512 V 512 H 0 Z"
           id="path20"
           fill="none"
           fill-rule="evenodd"
           stroke="none" />
        <g
           clip-path="url(#mask_1)"
           id="g55">
          <g
             id="Icon-Copy-4"
             transform="translate(52.906494,60.757202)">
            <g
               id="Icon">
              <g
                 id="Box">
                <path
                   d="M 97.6314,0 H 383.189 c 0.419,0 0.838,0.0102799 1.256,0.0308333 0.419,0.0205599 0.837,0.0513672 1.253,0.0924287 0.418,0.041061 0.834,0.09233 1.248,0.153802 0.414,0.061471 0.826,0.133073 1.237,0.214798 0.411,0.081732 0.82,0.173496 1.227,0.275286 0.406,0.101791 0.81,0.213497 1.21,0.335102 0.401,0.12162 0.798,0.25298 1.193,0.39412 0.395,0.14113 0.786,0.29186 1.173,0.45218 0.387,0.16032 0.769,0.33004 1.148,0.50915 0.379,0.17912 0.753,0.36742 1.123,0.56491 0.369,0.19748 0.733,0.40391 1.093,0.6193 0.359,0.21537 0.713,0.43943 1.061,0.67219 0.348,0.23274 0.691,0.47389 1.028,0.72345 0.336,0.24956 0.666,0.50723 0.989,0.773 0.325,0.26577 0.642,0.53931 0.953,0.82065 0.31,0.28134 0.614,0.57013 0.909,0.86637 0.296,0.29623 0.585,0.59955 0.867,0.90996 0.281,0.31041 0.555,0.62754 0.821,0.95137 0.265,0.32385 0.522,0.654 0.772,0.9905 0.25,0.3365 0.491,0.6789 0.723,1.0272 0.234,0.3484 0.458,0.7022 0.673,1.0615 0.215,0.3594 0.421,0.7238 0.619,1.0932 0.198,0.3695 0.386,0.7436 0.565,1.1223 0.179,0.3787 0.348,0.7616 0.509,1.1486 0.16,0.3871 0.311,0.7778 0.452,1.1723 0.141,0.3945 0.272,0.7921 0.394,1.193 0.122,0.4009 0.234,0.8045 0.336,1.2108 0.102,0.4065 0.193,0.8151 0.275,1.2259 0.082,0.411 0.154,0.8237 0.215,1.2381 0.062,0.4143 0.113,0.83 0.154,1.2469 0.041,0.4169 0.072,0.8346 0.092,1.253 0.02,0.4185 0.031,0.8372 0.031,1.2561 V 300.351 c 0,0.419 -0.011,0.838 -0.031,1.256 -0.02,0.419 -0.051,0.837 -0.092,1.253 -0.041,0.418 -0.092,0.833 -0.154,1.248 -0.061,0.414 -0.133,0.826 -0.215,1.237 -0.082,0.411 -0.173,0.82 -0.275,1.227 -0.102,0.406 -0.214,0.81 -0.336,1.21 -0.122,0.402 -0.253,0.799 -0.394,1.193 -0.141,0.395 -0.292,0.786 -0.452,1.172 -0.161,0.387 -0.33,0.77 -0.509,1.149 -0.179,0.379 -0.367,0.753 -0.565,1.123 -0.198,0.369 -0.404,0.733 -0.619,1.092 -0.215,0.36 -0.439,0.714 -0.673,1.062 -0.232,0.348 -0.473,0.69 -0.723,1.027 -0.25,0.337 -0.507,0.667 -0.773,0.99 -0.266,0.324 -0.539,0.642 -0.82,0.952 -0.282,0.311 -0.571,0.614 -0.867,0.91 -0.295,0.296 -0.599,0.585 -0.909,0.867 -0.311,0.281 -0.628,0.555 -0.953,0.821 -0.323,0.265 -0.653,0.523 -0.989,0.773 -0.337,0.249 -0.68,0.49 -1.028,0.722 -0.348,0.233 -0.702,0.457 -1.061,0.672 -0.36,0.217 -0.724,0.423 -1.093,0.62 -0.37,0.198 -0.744,0.386 -1.123,0.565 -0.379,0.18 -0.761,0.349 -1.148,0.508 -0.387,0.161 -0.778,0.312 -1.173,0.453 -0.395,0.141 -0.792,0.272 -1.193,0.394 -0.4,0.122 -0.804,0.234 -1.21,0.336 -0.407,0.101 -0.816,0.193 -1.227,0.275 -0.411,0.082 -0.823,0.154 -1.237,0.215 -0.414,0.061 -0.83,0.113 -1.248,0.154 -0.416,0.041 -0.834,0.071 -1.253,0.092 -0.418,0.02 -0.837,0.03 -1.256,0.03 h -14.534 c -0.418,0 -0.837,0.011 -1.256,0.031 -0.417,0.021 -0.835,0.051 -1.252,0.092 -0.417,0.042 -0.832,0.094 -1.246,0.156 -0.416,0.061 -0.829,0.132 -1.239,0.213 -0.411,0.082 -0.819,0.174 -1.226,0.276 -0.406,0.102 -0.81,0.213 -1.211,0.335 -0.401,0.122 -0.799,0.253 -1.193,0.394 -0.394,0.141 -0.785,0.292 -1.173,0.452 -0.387,0.161 -0.77,0.33 -1.148,0.509 -0.378,0.18 -0.752,0.368 -1.122,0.565 -0.369,0.198 -0.734,0.404 -1.094,0.619 -0.359,0.216 -0.713,0.44 -1.061,0.673 -0.348,0.233 -0.691,0.474 -1.028,0.724 -0.335,0.249 -0.665,0.506 -0.989,0.773 -0.325,0.265 -0.642,0.538 -0.951,0.821 -0.311,0.281 -0.615,0.569 -0.911,0.865 -0.296,0.297 -0.585,0.6 -0.866,0.91 -0.281,0.31 -0.554,0.628 -0.821,0.952 -0.266,0.324 -0.524,0.654 -0.773,0.99 -0.249,0.336 -0.49,0.679 -0.723,1.027 -0.233,0.348 -0.457,0.702 -0.673,1.062 -0.215,0.359 -0.421,0.724 -0.619,1.094 -0.197,0.368 -0.385,0.742 -0.565,1.121 -0.179,0.379 -0.348,0.762 -0.509,1.148 -0.16,0.388 -0.311,0.779 -0.452,1.173 -0.141,0.395 -0.273,0.792 -0.394,1.193 -0.122,0.402 -0.234,0.805 -0.335,1.212 -0.102,0.406 -0.194,0.814 -0.275,1.225 -0.082,0.411 -0.153,0.823 -0.215,1.237 -0.061,0.416 -0.112,0.831 -0.153,1.248 -0.042,0.416 -0.074,0.834 -0.094,1.253 -0.021,0.418 -0.031,0.837 -0.031,1.256 v 14.534 c 0,0.418 -0.01,0.837 -0.031,1.256 -0.02,0.419 -0.051,0.836 -0.092,1.253 -0.041,0.417 -0.092,0.833 -0.153,1.247 -0.062,0.414 -0.133,0.827 -0.215,1.237 -0.082,0.411 -0.174,0.82 -0.275,1.226 -0.103,0.407 -0.214,0.811 -0.335,1.212 -0.121,0.4 -0.253,0.798 -0.394,1.193 -0.141,0.394 -0.292,0.785 -0.452,1.172 -0.161,0.387 -0.331,0.77 -0.51,1.149 -0.179,0.378 -0.367,0.753 -0.565,1.123 -0.197,0.368 -0.404,0.732 -0.62,1.092 -0.215,0.359 -0.438,0.713 -0.671,1.061 -0.233,0.349 -0.474,0.691 -0.723,1.028 -0.251,0.337 -0.508,0.667 -0.773,0.99 -0.267,0.324 -0.54,0.641 -0.821,0.952 -0.281,0.311 -0.57,0.614 -0.867,0.91 -0.296,0.295 -0.599,0.584 -0.91,0.867 -0.31,0.281 -0.627,0.554 -0.951,0.819 -0.324,0.266 -0.654,0.524 -0.991,0.773 -0.337,0.25 -0.679,0.491 -1.028,0.724 -0.348,0.233 -0.702,0.457 -1.061,0.672 -0.358,0.215 -0.723,0.422 -1.092,0.62 -0.37,0.197 -0.744,0.386 -1.123,0.564 -0.379,0.179 -0.762,0.349 -1.149,0.509 -0.387,0.16 -0.778,0.311 -1.172,0.452 -0.394,0.141 -0.792,0.273 -1.193,0.395 -0.401,0.121 -0.804,0.233 -1.21,0.336 -0.407,0.101 -0.816,0.193 -1.227,0.275 -0.411,0.081 -0.824,0.153 -1.238,0.215 -0.414,0.061 -0.83,0.112 -1.247,0.153 -0.417,0.041 -0.834,0.072 -1.253,0.092 -0.418,0.021 -0.836,0.031 -1.256,0.031 H 25.5983 c -0.4189,0 -0.8376,-0.01 -1.2561,-0.031 -0.4184,-0.02 -0.836,-0.051 -1.253,-0.092 -0.4169,-0.041 -0.8326,-0.092 -1.2469,-0.153 -0.4144,-0.062 -0.8271,-0.134 -1.2381,-0.215 -0.4108,-0.082 -0.8194,-0.175 -1.2258,-0.277 -0.4064,-0.101 -0.81,-0.213 -1.2109,-0.334 -0.4009,-0.122 -0.7985,-0.254 -1.193,-0.395 -0.3945,-0.141 -0.7852,-0.292 -1.1723,-0.452 -0.387,-0.16 -0.7699,-0.33 -1.1486,-0.509 -0.3787,-0.179 -0.7528,-0.368 -1.1223,-0.564 -0.3694,-0.198 -0.7338,-0.405 -1.0932,-0.62 -0.3593,-0.215 -0.7131,-0.439 -1.0615,-0.672 -0.3483,-0.233 -0.6907,-0.474 -1.0272,-0.724 -0.3365,-0.249 -0.66665,-0.507 -0.9905,-0.773 -0.32383,-0.265 -0.64095,-0.538 -0.95137,-0.819 -0.31041,-0.283 -0.61374,-0.572 -0.90997,-0.867 -0.29623,-0.296 -0.58502,-0.599 -0.86635,-0.91 -0.28135,-0.311 -0.55489,-0.628 -0.82066,-0.952 -0.26577,-0.323 -0.52344,-0.653 -0.773,-0.99 -0.24956,-0.337 -0.49071,-0.679 -0.72345,-1.028 -0.23276,-0.348 -0.45682,-0.702 -0.67219,-1.061 -0.21539,-0.36 -0.42182,-0.724 -0.6193,-1.094 C 2.82512,377.779 2.63682,377.405 2.4577,377.027 2.27859,376.648 2.10887,376.265 1.94856,375.878 1.78823,375.491 1.6375,375.1 1.49637,374.706 1.35524,374.311 1.22386,373.913 1.10225,373.513 0.980641,373.112 0.868942,372.708 0.767149,372.301 0.665355,371.895 0.573594,371.486 0.491862,371.075 0.410134,370.665 0.338532,370.252 0.277061,369.838 0.215592,369.424 0.164326,369.008 0.123262,368.591 0.0822005,368.174 0.05139,367.757 0.0308333,367.338 0.0102767,366.919 0,366.5 0,366.082 V 98.5319 c 0,-0.419 0.0102767,-0.8377 0.0308333,-1.2562 0.0205567,-0.4183 0.0513672,-0.836 0.0924287,-1.253 0.041064,-0.4169 0.09233,-0.8325 0.153799,-1.2469 0.061471,-0.4144 0.133073,-0.827 0.214804,-1.238 0.081729,-0.4109 0.17349,-0.8195 0.275284,-1.2259 0.101793,-0.4064 0.213496,-0.81 0.335101,-1.2109 0.12161,-0.4008 0.25299,-0.7985 0.39412,-1.1929 0.14113,-0.3945 0.29186,-0.7853 0.45219,-1.1724 0.16031,-0.387 0.33003,-0.7699 0.50914,-1.1485 0.17912,-0.3788 0.36742,-0.7529 0.56491,-1.1223 0.19748,-0.3695 0.40391,-0.7339 0.6193,-1.0932 0.21537,-0.3594 0.43943,-0.7132 0.67219,-1.0615 0.23274,-0.3484 0.47389,-0.6908 0.72345,-1.0272 0.24956,-0.3366 0.50723,-0.6668 0.773,-0.9906 0.26577,-0.3238 0.53931,-0.6409 0.82066,-0.9513 0.28133,-0.3105 0.57012,-0.6138 0.86636,-0.91 0.29623,-0.2963 0.59955,-0.585 0.90996,-0.8663 0.31042,-0.2814 0.62754,-0.555 0.95137,-0.8207 0.32385,-0.2658 0.654,-0.5235 0.9905,-0.773 0.3365,-0.2496 0.6789,-0.4908 1.0272,-0.7234 0.3484,-0.2328 0.7022,-0.4569 1.0615,-0.6723 0.3594,-0.2154 0.7238,-0.4218 1.0932,-0.6193 0.3695,-0.1974 0.7436,-0.3858 1.1223,-0.5649 0.3787,-0.1791 0.7616,-0.3488 1.1486,-0.5091 0.3871,-0.1604 0.7778,-0.3111 1.1723,-0.4522 0.3945,-0.1412 0.7921,-0.2726 1.193,-0.3942 0.4009,-0.1215 0.8045,-0.2332 1.2109,-0.335 0.4064,-0.1018 0.815,-0.1936 1.2258,-0.2753 0.411,-0.0817 0.8237,-0.1533 1.2381,-0.2149 0.4143,-0.0614 0.83,-0.1127 1.2469,-0.1537 0.417,-0.0411 0.8346,-0.0719 1.253,-0.0925 0.4185,-0.0205 0.8372,-0.0308 1.2561,-0.0308 h 20.8365 c 0.419,0 0.8377,-0.0102 1.2561,-0.0308 0.4184,-0.0205 0.8361,-0.0513 1.2531,-0.0924 0.4169,-0.0411 0.8325,-0.0924 1.2469,-0.1539 0.4143,-0.0615 0.827,-0.133 1.238,-0.2147 0.4108,-0.0818 0.8195,-0.1736 1.2259,-0.2753 0.4063,-0.1018 0.8099,-0.2136 1.2109,-0.3352 0.4008,-0.1215 0.7984,-0.2529 1.1929,-0.3941 0.3945,-0.141 0.7853,-0.2917 1.1723,-0.452 0.387,-0.1605 0.7698,-0.3302 1.1486,-0.5093 0.3787,-0.1791 0.7528,-0.3674 1.1223,-0.5649 0.3694,-0.1974 0.7338,-0.4038 1.0931,-0.6192 0.3593,-0.2154 0.7132,-0.4395 1.0616,-0.6723 0.3483,-0.2328 0.6907,-0.4739 1.0272,-0.7234 0.3365,-0.2495 0.6667,-0.5072 0.9906,-0.773 0.3238,-0.2658 0.6409,-0.5393 0.9513,-0.8207 0.3104,-0.2814 0.6137,-0.5701 0.91,-0.8663 0.2961,-0.2963 0.5849,-0.5996 0.8663,-0.91 0.2813,-0.3104 0.5549,-0.6275 0.8207,-0.9515 0.2658,-0.3238 0.5234,-0.6539 0.773,-0.9904 0.2495,-0.3365 0.4906,-0.6789 0.7234,-1.0272 0.2328,-0.3484 0.4569,-0.7022 0.6723,-1.0615 0.2154,-0.3594 0.4217,-0.7237 0.6191,-1.0932 0.1976,-0.3695 0.3859,-0.7436 0.565,-1.1223 0.1791,-0.3787 0.3489,-0.7616 0.5092,-1.1485 0.1603,-0.3871 0.311,-0.7779 0.4521,-1.1724 0.1412,-0.3944 0.2726,-0.7921 0.3941,-1.1929 0.1216,-0.401 0.2334,-0.8047 0.3352,-1.2111 0.1018,-0.4063 0.1936,-0.8149 0.2753,-1.2259 0.0817,-0.4108 0.1532,-0.8234 0.2147,-1.2378 0.0615,-0.4144 0.1128,-0.8301 0.1539,-1.2471 0.0411,-0.4169 0.0719,-0.8345 0.0923,-1.2528 0.0206,-0.4185 0.0309,-0.8372 0.0309,-1.2561 v -21.737 c 0,-0.4189 0.0103,-0.8376 0.0309,-1.2561 0.0205,-0.4184 0.0513,-0.8361 0.0923,-1.253 0.0411,-0.4169 0.0924,-0.8326 0.1538,-1.2469 0.0616,-0.4144 0.1332,-0.8271 0.2149,-1.2381 0.0817,-0.4108 0.1734,-0.8194 0.2753,-1.2259 0.1018,-0.4063 0.2135,-0.8099 0.335,-1.2108 0.1216,-0.4009 0.253,-0.7985 0.3942,-1.193 0.1411,-0.3945 0.2918,-0.7852 0.4521,-1.1723 0.1603,-0.387 0.3301,-0.7699 0.5093,-1.1486 0.1791,-0.3787 0.3674,-0.7528 0.5649,-1.1223 0.1974,-0.3694 0.4038,-0.7338 0.6192,-1.0932 0.2154,-0.3593 0.4394,-0.7131 0.6722,-1.0615 0.2327,-0.3483 0.4739,-0.6907 0.7235,-1.0272 0.2495,-0.3365 0.5072,-0.66665 0.7729,-0.9905 0.2658,-0.32383 0.5394,-0.64096 0.8208,-0.95137 0.2812,-0.31041 0.57,-0.61373 0.8663,-0.90996 0.2963,-0.29624 0.5996,-0.58503 0.91,-0.86637 0.3104,-0.28134 0.6275,-0.55488 0.9513,-0.82065 0.3239,-0.26577 0.6541,-0.52344 0.9905,-0.773 C 82.719,4.78799 83.0614,4.54684 83.4098,4.3141 83.758,4.08134 84.1119,3.85728 84.4713,3.64191 84.8306,3.42652 85.195,3.22009 85.5644,3.02261 85.9339,2.82512 86.308,2.63682 86.6867,2.4577 87.0654,2.27859 87.4482,2.10887 87.8353,1.94855 88.2224,1.78823 88.6132,1.6375 89.0076,1.49637 c 0.3945,-0.14114 0.7922,-0.2725 1.193,-0.39412 0.401,-0.121605 0.8046,-0.233311 1.2109,-0.335102 0.4064,-0.10179 0.815,-0.193554 1.2259,-0.275286 0.4109,-0.081725 0.8236,-0.153327 1.238,-0.214798 0.4144,-0.061472 0.83,-0.112741 1.2469,-0.153802 0.417,-0.0410615 0.8346,-0.0718688 1.253,-0.0924287 C 96.7938,0.0102799 97.2125,0 97.6314,0 Z"
                   id="Outer-Shape"
                   fill="#36c38e"
                   fill-rule="evenodd"
                   stroke="#36c38e"
                   stroke-width="1" />
                <path
                   d="M 90.3329,0 H 341.77 c 0.419,0 0.838,0.01028 1.256,0.0308333 0.419,0.0205599 0.837,0.0513672 1.253,0.0924287 0.418,0.041061 0.834,0.092331 1.248,0.153802 0.414,0.061471 0.826,0.133073 1.237,0.214798 0.411,0.081732 0.82,0.173496 1.227,0.275287 0.406,0.10179 0.81,0.213496 1.21,0.335101 0.401,0.12162 0.798,0.25298 1.193,0.39412 0.395,0.14113 0.786,0.29186 1.173,0.45219 0.386,0.16031 0.769,0.33003 1.148,0.50914 0.379,0.17912 0.753,0.36742 1.123,0.56491 0.369,0.19748 0.733,0.40391 1.092,0.6193 0.36,0.21537 0.714,0.43943 1.062,0.67219 0.348,0.23274 0.691,0.47389 1.027,0.72345 0.337,0.24956 0.667,0.50723 0.99,0.773 0.324,0.26577 0.642,0.53931 0.953,0.82066 0.31,0.28133 0.613,0.57012 0.909,0.86636 0.296,0.29623 0.585,0.59955 0.867,0.90996 0.281,0.31042 0.555,0.62754 0.821,0.95137 0.265,0.32385 0.522,0.654 0.772,0.9905 0.25,0.3365 0.491,0.6789 0.723,1.0272 0.233,0.3484 0.458,0.7022 0.673,1.0615 0.216,0.3594 0.422,0.7238 0.619,1.0932 0.198,0.3695 0.386,0.7436 0.565,1.1223 0.179,0.3787 0.348,0.7616 0.509,1.1486 0.16,0.3871 0.311,0.7778 0.452,1.1723 0.141,0.3945 0.272,0.7921 0.394,1.193 0.122,0.4009 0.234,0.8045 0.336,1.2109 0.102,0.4064 0.193,0.815 0.275,1.2259 0.082,0.4109 0.154,0.8236 0.215,1.238 0.062,0.4143 0.113,0.83 0.154,1.2469 0.041,0.417 0.071,0.8346 0.092,1.253 0.02,0.4185 0.031,0.8372 0.031,1.2561 V 267.326 c 0,0.418 -0.011,0.837 -0.031,1.256 -0.021,0.418 -0.051,0.836 -0.092,1.252 -0.041,0.418 -0.092,0.834 -0.154,1.248 -0.061,0.414 -0.133,0.826 -0.215,1.237 -0.082,0.411 -0.173,0.82 -0.275,1.227 -0.102,0.406 -0.214,0.81 -0.336,1.21 -0.122,0.401 -0.253,0.798 -0.394,1.193 -0.141,0.395 -0.292,0.786 -0.452,1.173 -0.161,0.387 -0.33,0.769 -0.509,1.148 -0.179,0.379 -0.367,0.754 -0.565,1.123 -0.197,0.369 -0.403,0.733 -0.619,1.093 -0.215,0.359 -0.44,0.713 -0.673,1.061 -0.232,0.348 -0.473,0.691 -0.723,1.028 -0.25,0.336 -0.507,0.666 -0.772,0.989 -0.266,0.325 -0.54,0.642 -0.821,0.953 -0.282,0.31 -0.571,0.614 -0.867,0.909 -0.296,0.296 -0.599,0.585 -0.909,0.867 -0.311,0.281 -0.629,0.555 -0.953,0.821 -0.323,0.265 -0.653,0.523 -0.99,0.772 -0.336,0.25 -0.679,0.491 -1.027,0.723 -0.348,0.234 -0.702,0.458 -1.062,0.673 -0.359,0.216 -0.723,0.422 -1.092,0.619 -0.37,0.198 -0.744,0.387 -1.123,0.565 -0.379,0.18 -0.762,0.349 -1.148,0.509 -0.387,0.16 -0.778,0.311 -1.173,0.452 -0.395,0.141 -0.792,0.273 -1.193,0.394 -0.4,0.122 -0.804,0.234 -1.21,0.337 -0.407,0.101 -0.816,0.192 -1.227,0.274 -0.411,0.082 -0.823,0.154 -1.237,0.215 -0.414,0.062 -0.83,0.113 -1.248,0.154 -0.416,0.041 -0.834,0.072 -1.253,0.092 -0.418,0.021 -0.837,0.031 -1.256,0.031 h -7.873 c -0.419,0 -0.838,0.01 -1.256,0.031 -0.418,0.02 -0.836,0.051 -1.254,0.092 -0.417,0.041 -0.832,0.092 -1.246,0.155 -0.414,0.061 -0.827,0.133 -1.239,0.213 -0.411,0.082 -0.819,0.174 -1.225,0.277 -0.407,0.101 -0.81,0.213 -1.21,0.334 -0.402,0.122 -0.8,0.253 -1.193,0.395 -0.395,0.141 -0.786,0.291 -1.173,0.452 -0.387,0.16 -0.77,0.33 -1.148,0.508 -0.379,0.18 -0.754,0.368 -1.123,0.565 -0.37,0.198 -0.734,0.405 -1.093,0.62 -0.359,0.215 -0.713,0.439 -1.061,0.672 -0.349,0.234 -0.692,0.475 -1.028,0.724 -0.336,0.249 -0.667,0.507 -0.991,0.773 -0.323,0.265 -0.64,0.539 -0.951,0.821 -0.31,0.281 -0.614,0.569 -0.909,0.865 -0.297,0.297 -0.586,0.6 -0.867,0.91 -0.281,0.31 -0.555,0.628 -0.821,0.952 -0.265,0.324 -0.523,0.654 -0.773,0.99 -0.25,0.337 -0.491,0.679 -0.724,1.027 -0.232,0.349 -0.456,0.702 -0.671,1.062 -0.216,0.36 -0.423,0.724 -0.619,1.094 -0.198,0.369 -0.387,0.742 -0.565,1.121 -0.18,0.379 -0.35,0.762 -0.511,1.149 -0.16,0.387 -0.311,0.778 -0.452,1.172 -0.141,0.395 -0.272,0.793 -0.394,1.193 -0.121,0.402 -0.232,0.806 -0.335,1.212 -0.101,0.406 -0.192,0.815 -0.274,1.225 -0.082,0.411 -0.154,0.824 -0.215,1.238 -0.062,0.415 -0.113,0.831 -0.154,1.247 -0.041,0.417 -0.072,0.834 -0.092,1.253 -0.021,0.419 -0.031,0.837 -0.031,1.256 v 7.875 c 0,0.418 -0.01,0.837 -0.031,1.256 -0.02,0.417 -0.051,0.835 -0.093,1.252 -0.041,0.417 -0.093,0.832 -0.154,1.246 -0.061,0.416 -0.133,0.829 -0.215,1.239 -0.081,0.411 -0.172,0.82 -0.275,1.226 -0.101,0.406 -0.213,0.81 -0.334,1.212 -0.122,0.4 -0.254,0.798 -0.395,1.192 -0.141,0.394 -0.291,0.785 -0.452,1.173 -0.16,0.387 -0.33,0.77 -0.508,1.149 -0.18,0.377 -0.369,0.751 -0.565,1.121 -0.198,0.37 -0.405,0.734 -0.62,1.094 -0.216,0.359 -0.44,0.713 -0.672,1.061 -0.234,0.348 -0.475,0.691 -0.724,1.028 -0.249,0.335 -0.507,0.665 -0.773,0.99 -0.266,0.324 -0.54,0.641 -0.821,0.95 -0.281,0.311 -0.569,0.615 -0.865,0.912 -0.297,0.295 -0.601,0.584 -0.912,0.865 -0.309,0.282 -0.626,0.556 -0.95,0.821 -0.324,0.266 -0.654,0.524 -0.99,0.773 -0.337,0.249 -0.679,0.49 -1.028,0.724 -0.349,0.232 -0.703,0.456 -1.061,0.672 -0.36,0.215 -0.724,0.422 -1.094,0.619 -0.37,0.197 -0.744,0.386 -1.121,0.565 -0.379,0.179 -0.762,0.349 -1.149,0.509 -0.388,0.16 -0.779,0.311 -1.172,0.452 -0.395,0.141 -0.793,0.273 -1.193,0.394 -0.402,0.122 -0.806,0.234 -1.212,0.335 -0.406,0.102 -0.815,0.194 -1.225,0.275 -0.411,0.082 -0.824,0.153 -1.239,0.215 -0.415,0.061 -0.83,0.112 -1.246,0.153 -0.418,0.043 -0.835,0.074 -1.253,0.094 -0.419,0.021 -0.837,0.031 -1.256,0.031 H 25.5983 c -0.4189,0 -0.8376,-0.01 -1.2561,-0.031 -0.4184,-0.02 -0.836,-0.051 -1.253,-0.094 -0.4169,-0.041 -0.8326,-0.092 -1.2469,-0.153 -0.4144,-0.062 -0.8271,-0.133 -1.2381,-0.215 -0.4108,-0.081 -0.8194,-0.173 -1.2259,-0.275 -0.4063,-0.101 -0.8099,-0.213 -1.2108,-0.335 -0.4009,-0.121 -0.7985,-0.253 -1.193,-0.394 -0.3945,-0.141 -0.7852,-0.292 -1.1723,-0.452 -0.387,-0.16 -0.7699,-0.33 -1.1486,-0.509 -0.3787,-0.179 -0.7528,-0.368 -1.1223,-0.565 -0.3694,-0.197 -0.7338,-0.404 -1.0932,-0.619 -0.3593,-0.216 -0.7131,-0.44 -1.0615,-0.672 -0.3483,-0.234 -0.6907,-0.475 -1.0272,-0.724 -0.3365,-0.249 -0.66665,-0.507 -0.9905,-0.773 -0.32383,-0.266 -0.64096,-0.54 -0.95137,-0.821 -0.31041,-0.281 -0.61374,-0.57 -0.90997,-0.865 -0.29623,-0.297 -0.58502,-0.601 -0.86635,-0.912 -0.28135,-0.309 -0.55489,-0.626 -0.82066,-0.95 -0.26577,-0.325 -0.52344,-0.655 -0.773,-0.99 -0.24956,-0.337 -0.49071,-0.68 -0.72345,-1.028 -0.23276,-0.348 -0.45682,-0.702 -0.67219,-1.061 -0.21539,-0.36 -0.42182,-0.724 -0.6193,-1.094 C 2.82512,338.093 2.63682,337.719 2.4577,337.342 2.27859,336.963 2.10887,336.58 1.94856,336.193 1.78823,335.805 1.6375,335.414 1.49637,335.02 1.35523,334.626 1.22387,334.228 1.10225,333.828 0.980645,333.426 0.868939,333.022 0.767149,332.616 0.665358,332.21 0.573594,331.801 0.491862,331.39 0.41013,330.98 0.338535,330.567 0.277064,330.151 0.215592,329.737 0.164323,329.322 0.123262,328.905 0.0822005,328.488 0.0513932,328.07 0.0308333,327.653 0.0102799,327.234 0,326.815 0,326.397 V 91.1422 c 0,-0.419 0.0102799,-0.8377 0.0308333,-1.2561 0.0205599,-0.4185 0.0513672,-0.8362 0.0924287,-1.2531 0.041061,-0.4169 0.09233,-0.8325 0.153802,-1.247 0.061471,-0.4144 0.133073,-0.827 0.214798,-1.2379 0.081732,-0.4108 0.173496,-0.8195 0.275287,-1.2259 0.10179,-0.4064 0.213496,-0.81 0.335101,-1.2109 0.12162,-0.4009 0.25298,-0.7986 0.39412,-1.1931 0.14113,-0.3944 0.29186,-0.785 0.45219,-1.1721 0.16031,-0.3871 0.33003,-0.77 0.50914,-1.1486 0.17912,-0.3788 0.36742,-0.7529 0.56491,-1.1223 0.19748,-0.3696 0.40391,-0.734 0.6193,-1.0933 0.21537,-0.3593 0.43943,-0.7132 0.67219,-1.0616 0.23274,-0.3482 0.47389,-0.6906 0.72345,-1.027 0.24956,-0.3366 0.50723,-0.6668 0.773,-0.9906 0.26577,-0.3238 0.53931,-0.641 0.82066,-0.9515 0.28133,-0.3103 0.57012,-0.6136 0.86636,-0.9098 0.29623,-0.2962 0.59955,-0.5851 0.90996,-0.8664 0.31041,-0.2813 0.62754,-0.5548 0.95137,-0.8206 0.32385,-0.2658 0.654,-0.5235 0.9905,-0.7731 0.3365,-0.2495 0.6789,-0.4907 1.0272,-0.7235 0.3484,-0.2327 0.7022,-0.4567 1.0615,-0.6721 0.3594,-0.2154 0.7238,-0.4218 1.0932,-0.6193 0.3695,-0.1975 0.7436,-0.3858 1.1223,-0.5649 0.3787,-0.1791 0.7616,-0.3488 1.1486,-0.5091 0.3871,-0.1604 0.7778,-0.3111 1.1723,-0.4523 0.3945,-0.1411 0.7921,-0.2724 1.193,-0.3941 0.4009,-0.1216 0.8045,-0.2333 1.2108,-0.335 0.4065,-0.1018 0.8151,-0.1936 1.2259,-0.2753 0.411,-0.0818 0.8237,-0.1534 1.2381,-0.2148 0.4143,-0.0615 0.83,-0.1127 1.2469,-0.1538 0.417,-0.0411 0.8346,-0.0719 1.253,-0.0925 0.4185,-0.0205 0.8372,-0.0307 1.2561,-0.0307 h 13.538 c 0.4189,0 0.8376,-0.0103 1.2561,-0.0309 0.4184,-0.0206 0.8361,-0.0514 1.253,-0.0925 0.4169,-0.0411 0.8325,-0.0924 1.2469,-0.1538 0.4144,-0.0614 0.827,-0.133 1.238,-0.2147 0.4109,-0.0818 0.8195,-0.1736 1.2259,-0.2753 0.4063,-0.1018 0.8099,-0.2135 1.2109,-0.3352 0.4009,-0.1216 0.7986,-0.253 1.1929,-0.394 0.3945,-0.1412 0.7853,-0.292 1.1724,-0.4523 0.387,-0.1603 0.7699,-0.33 1.1485,-0.5091 0.3788,-0.1791 0.7529,-0.3674 1.1224,-0.5649 0.3694,-0.1975 0.7338,-0.404 1.0931,-0.6194 0.3594,-0.2153 0.7132,-0.4394 1.0615,-0.672 0.3484,-0.2328 0.6908,-0.474 1.0273,-0.7235 0.3365,-0.2496 0.6667,-0.5073 0.9905,-0.7731 0.3238,-0.2657 0.6409,-0.5392 0.9513,-0.8206 0.3105,-0.2814 0.6138,-0.5702 0.91,-0.8665 0.2963,-0.2961 0.585,-0.5994 0.8663,-0.9098 0.2814,-0.3105 0.555,-0.6276 0.8207,-0.9515 0.2658,-0.3238 0.5235,-0.654 0.773,-0.9905 0.2496,-0.3364 0.4908,-0.6789 0.7235,-1.0272 0.2327,-0.3483 0.4568,-0.7021 0.6722,-1.0614 0.2154,-0.3593 0.4218,-0.7238 0.6194,-1.0933 0.1974,-0.3694 0.3857,-0.7435 0.5649,-1.1222 0.1791,-0.3787 0.3487,-0.7616 0.5091,-1.1487 0.1603,-0.3871 0.311,-0.7778 0.4521,-1.1721 0.1412,-0.3945 0.2726,-0.7922 0.3942,-1.1932 0.1216,-0.4008 0.2333,-0.8044 0.335,-1.2108 0.1018,-0.4065 0.1936,-0.8151 0.2753,-1.226 0.0818,-0.4108 0.1534,-0.8234 0.2149,-1.2378 0.0614,-0.4145 0.1127,-0.8302 0.1537,-1.2471 0.0411,-0.4168 0.0719,-0.8345 0.0925,-1.253 0.0205,-0.4184 0.0308,-0.837 0.0308,-1.2559 V 25.5983 c 0,-0.4189 0.0103,-0.8376 0.0308,-1.2561 0.0206,-0.4184 0.0514,-0.836 0.0924,-1.253 0.0411,-0.4169 0.0924,-0.8326 0.1539,-1.2469 0.0615,-0.4144 0.133,-0.8271 0.2147,-1.238 0.0818,-0.4109 0.1736,-0.8195 0.2753,-1.2259 0.1018,-0.4064 0.2136,-0.81 0.3352,-1.2109 0.1216,-0.4009 0.253,-0.7985 0.3941,-1.193 0.141,-0.3945 0.2918,-0.7852 0.4522,-1.1723 0.1604,-0.387 0.33,-0.7699 0.5091,-1.1486 0.1791,-0.3787 0.3674,-0.7528 0.5649,-1.1223 0.1975,-0.3694 0.4038,-0.7338 0.6192,-1.0932 0.2154,-0.3593 0.4395,-0.7131 0.6723,-1.0615 0.2328,-0.3483 0.4739,-0.6907 0.7234,-1.0272 0.2497,-0.3365 0.5073,-0.66665 0.773,-0.9905 0.2658,-0.32383 0.5393,-0.64095 0.8207,-0.95137 0.2814,-0.31041 0.5702,-0.61373 0.8663,-0.90996 0.2963,-0.29624 0.5996,-0.58503 0.91,-0.86636 0.3104,-0.28135 0.6276,-0.55489 0.9515,-0.82066 0.3238,-0.26577 0.6539,-0.52344 0.9904,-0.773 C 75.4205,4.78799 75.7629,4.54684 76.1112,4.3141 76.4596,4.08134 76.8134,3.85728 77.1727,3.64191 77.5321,3.42652 77.8964,3.22009 78.2659,3.02261 78.6354,2.82512 79.0095,2.63682 79.3882,2.4577 79.7669,2.27859 80.1498,2.10887 80.5368,1.94856 80.9238,1.78823 81.3146,1.6375 81.7091,1.49637 82.1035,1.35523 82.5012,1.22387 82.902,1.10225 83.303,0.980645 83.7067,0.868939 84.1131,0.767149 84.5194,0.665358 84.928,0.573594 85.339,0.491862 85.7498,0.410137 86.1624,0.338535 86.5768,0.277064 86.9912,0.215593 87.4069,0.164323 87.8239,0.123262 88.2408,0.0822005 88.6585,0.0513932 89.0769,0.0308333 89.4953,0.01028 89.9139,0 90.3329,0 Z"
                   transform="translate(19.808838,20.709595)"
                   id="Middle-Shape"
                   fill="#035841"
                   fill-rule="evenodd"
                   stroke="none" />
                <g
                   id="HEX"
                   transform="translate(57.62671,56.408813)">
                  <path
                     d="M 77.0051,0 H 266.136 c 0.419,0 0.837,0.0102734 1.256,0.0308333 0.419,0.0205599 0.836,0.0513672 1.253,0.0924347 0.416,0.041055 0.832,0.092318 1.247,0.153789 0.414,0.061472 0.827,0.133073 1.238,0.214805 0.41,0.081732 0.819,0.17349 1.225,0.275286 0.407,0.101797 0.811,0.21349 1.212,0.335102 0.4,0.12162 0.798,0.25298 1.193,0.39412 0.395,0.14113 0.785,0.29186 1.172,0.45218 0.387,0.16033 0.77,0.33004 1.149,0.50916 0.379,0.17911 0.752,0.36742 1.121,0.56489 0.37,0.19749 0.734,0.40392 1.094,0.6193 0.36,0.21538 0.713,0.43944 1.062,0.67219 0.348,0.23275 0.69,0.47391 1.027,0.72346 0.337,0.24956 0.667,0.50723 0.99,0.773 0.324,0.26577 0.642,0.53932 0.952,0.82065 0.31,0.28134 0.613,0.57013 0.91,0.86638 0.296,0.29621 0.584,0.59953 0.865,0.90996 0.282,0.3104 0.556,0.62753 0.821,0.95135 0.266,0.32386 0.524,0.65401 0.773,0.99051 0.25,0.3365 0.492,0.6789 0.724,1.0272 0.233,0.3484 0.457,0.7022 0.672,1.0615 0.215,0.3594 0.422,0.7238 0.62,1.0932 0.197,0.3695 0.385,0.7436 0.565,1.1223 0.178,0.3787 0.348,0.7616 0.508,1.1487 0.161,0.387 0.311,0.7777 0.452,1.1722 0.142,0.3945 0.273,0.7921 0.395,1.193 0.121,0.4009 0.233,0.8045 0.334,1.2108 0.103,0.4065 0.195,0.8151 0.277,1.2259 0.082,0.411 0.153,0.8237 0.215,1.2381 0.061,0.4143 0.112,0.83 0.153,1.2469 0.041,0.4169 0.072,0.8346 0.092,1.253 0.021,0.4185 0.031,0.8372 0.031,1.2561 V 209.164 c 0,0.383 -0.009,0.767 -0.029,1.15 -0.018,0.384 -0.046,0.767 -0.083,1.149 -0.038,0.381 -0.085,0.762 -0.142,1.142 -0.056,0.38 -0.121,0.758 -0.196,1.135 -0.075,0.375 -0.16,0.749 -0.253,1.123 -0.093,0.372 -0.196,0.741 -0.307,1.109 -0.112,0.367 -0.232,0.731 -0.36,1.092 -0.13,0.362 -0.268,0.72 -0.415,1.074 -0.147,0.355 -0.302,0.706 -0.466,1.053 -0.165,0.347 -0.338,0.69 -0.519,1.029 -0.181,0.338 -0.369,0.671 -0.566,1 -0.198,0.33 -0.404,0.654 -0.616,0.973 -0.213,0.319 -0.434,0.633 -0.663,0.942 -0.228,0.308 -0.464,0.61 -0.708,0.906 -0.243,0.297 -0.494,0.588 -0.753,0.872 -0.257,0.285 -0.521,0.563 -0.793,0.835 -0.272,0.27 -0.55,0.535 -0.833,0.793 -0.284,0.257 -0.575,0.508 -0.872,0.751 -0.297,0.244 -0.6,0.48 -0.908,0.708 -0.308,0.229 -0.622,0.45 -0.94,0.664 -0.32,0.213 -0.644,0.418 -0.973,0.615 -0.33,0.198 -0.664,0.387 -1.002,0.568 -0.339,0.181 -0.682,0.353 -1.029,0.517 -0.346,0.164 -0.696,0.319 -1.051,0.466 -0.355,0.148 -0.713,0.286 -1.074,0.415 -0.362,0.13 -0.726,0.25 -1.094,0.362 -0.367,0.111 -0.737,0.214 -1.109,0.307 -0.372,0.093 -0.747,0.177 -1.123,0.251 -0.377,0.075 -0.755,0.141 -1.135,0.198 -0.379,0.055 -0.76,0.102 -1.142,0.14 -0.382,0.037 -0.765,0.066 -1.149,0.085 -0.383,0.018 -0.766,0.028 -1.15,0.029 h -0.003 c -0.384,0 -0.767,0.009 -1.151,0.027 -0.383,0.02 -0.766,0.048 -1.148,0.086 -0.382,0.037 -0.763,0.084 -1.142,0.14 -0.38,0.056 -0.758,0.122 -1.135,0.198 -0.376,0.074 -0.751,0.157 -1.123,0.25 -0.372,0.094 -0.742,0.196 -1.109,0.308 -0.368,0.111 -0.732,0.232 -1.092,0.361 -0.362,0.129 -0.721,0.267 -1.076,0.415 -0.353,0.147 -0.704,0.302 -1.051,0.466 -0.347,0.164 -0.69,0.336 -1.029,0.517 -0.338,0.181 -0.672,0.371 -1.002,0.569 -0.329,0.196 -0.652,0.401 -0.971,0.614 -0.32,0.214 -0.634,0.435 -0.942,0.664 -0.308,0.228 -0.611,0.465 -0.908,0.708 -0.296,0.244 -0.586,0.494 -0.87,0.751 -0.285,0.258 -0.563,0.523 -0.835,0.794 -0.271,0.272 -0.535,0.55 -0.794,0.834 -0.257,0.285 -0.507,0.575 -0.75,0.872 -0.244,0.296 -0.48,0.598 -0.709,0.907 -0.228,0.308 -0.45,0.622 -0.664,0.942 -0.212,0.318 -0.418,0.642 -0.616,0.972 -0.197,0.329 -0.385,0.663 -0.566,1 -0.181,0.34 -0.354,0.683 -0.517,1.03 -0.165,0.347 -0.321,0.698 -0.468,1.053 -0.147,0.354 -0.285,0.711 -0.413,1.073 -0.13,0.361 -0.25,0.725 -0.362,1.092 -0.111,0.368 -0.214,0.738 -0.307,1.11 -0.093,0.373 -0.178,0.747 -0.253,1.123 -0.074,0.376 -0.139,0.755 -0.196,1.135 -0.056,0.38 -0.103,0.76 -0.142,1.141 -0.037,0.383 -0.065,0.766 -0.083,1.149 -0.02,0.383 -0.029,0.767 -0.029,1.15 v 0.004 c 0,0.384 -0.009,0.768 -0.028,1.152 -0.019,0.383 -0.047,0.765 -0.085,1.147 -0.037,0.382 -0.084,0.763 -0.14,1.143 -0.057,0.379 -0.123,0.757 -0.198,1.133 -0.075,0.377 -0.159,0.751 -0.252,1.123 -0.094,0.373 -0.196,0.743 -0.306,1.11 -0.111,0.367 -0.232,0.732 -0.362,1.094 -0.129,0.36 -0.268,0.718 -0.414,1.073 -0.147,0.355 -0.303,0.706 -0.466,1.053 -0.164,0.347 -0.337,0.69 -0.517,1.028 -0.181,0.339 -0.371,0.672 -0.569,1.001 -0.197,0.329 -0.402,0.653 -0.616,0.973 -0.213,0.319 -0.433,0.632 -0.662,0.94 -0.229,0.309 -0.465,0.611 -0.708,0.908 -0.244,0.297 -0.494,0.588 -0.751,0.873 -0.259,0.284 -0.524,0.562 -0.796,0.832 -0.27,0.272 -0.548,0.537 -0.832,0.794 -0.285,0.258 -0.576,0.509 -0.873,0.753 -0.297,0.243 -0.599,0.479 -0.907,0.708 -0.308,0.229 -0.621,0.449 -0.941,0.662 -0.318,0.214 -0.643,0.419 -0.973,0.616 -0.329,0.198 -0.662,0.388 -1.001,0.569 -0.338,0.18 -0.681,0.353 -1.028,0.517 -0.347,0.163 -0.698,0.319 -1.053,0.466 -0.354,0.146 -0.712,0.285 -1.073,0.414 -0.362,0.129 -0.726,0.249 -1.093,0.36 -0.367,0.112 -0.738,0.214 -1.111,0.308 -0.372,0.093 -0.746,0.177 -1.123,0.252 -0.375,0.075 -0.753,0.141 -1.133,0.196 -0.38,0.057 -0.761,0.105 -1.143,0.142 -0.382,0.038 -0.764,0.066 -1.147,0.085 -0.384,0.019 -0.768,0.028 -1.152,0.028 H 25.5983 c -0.4189,0 -0.8376,-0.011 -1.2561,-0.031 -0.4184,-0.02 -0.8361,-0.051 -1.253,-0.092 -0.4169,-0.041 -0.8326,-0.092 -1.2469,-0.154 -0.4144,-0.061 -0.8271,-0.133 -1.2381,-0.215 -0.4108,-0.082 -0.8194,-0.173 -1.2259,-0.275 -0.4063,-0.102 -0.8099,-0.214 -1.2108,-0.336 -0.4009,-0.122 -0.7985,-0.253 -1.193,-0.394 -0.3945,-0.141 -0.7852,-0.292 -1.1722,-0.452 -0.3871,-0.161 -0.77,-0.33 -1.1487,-0.509 -0.3787,-0.179 -0.7528,-0.367 -1.1223,-0.565 -0.3694,-0.198 -0.7338,-0.404 -1.0932,-0.619 -0.3593,-0.215 -0.7131,-0.439 -1.0615,-0.673 -0.3483,-0.232 -0.6907,-0.473 -1.0272,-0.723 -0.3365,-0.25 -0.66665,-0.507 -0.99051,-0.772 -0.32382,-0.266 -0.64095,-0.54 -0.95135,-0.821 C 8.09711,272.612 7.79379,272.323 7.49755,272.027 7.20133,271.732 6.91254,271.428 6.6312,271.118 6.34987,270.807 6.07631,270.49 5.81055,270.165 5.54478,269.842 5.28711,269.512 5.03755,269.176 4.788,268.839 4.54684,268.496 4.31409,268.148 4.08134,267.8 3.85728,267.446 3.6419,267.087 3.42652,266.727 3.22009,266.363 3.0226,265.994 2.82513,265.625 2.63682,265.25 2.45771,264.871 2.27859,264.492 2.10888,264.11 1.94855,263.723 1.78823,263.336 1.6375,262.945 1.49637,262.55 1.35523,262.155 1.22387,261.758 1.10225,261.357 0.980638,260.957 0.868945,260.553 0.767148,260.147 0.665352,259.74 0.573594,259.331 0.491862,258.92 0.41013,258.509 0.338529,258.097 0.277057,257.683 0.215586,257.269 0.164323,256.853 0.123268,256.435 0.0822005,256.019 0.0513932,255.601 0.0308333,255.183 0.0102734,254.764 0,254.345 0,253.926 V 77.6477 c 0,-0.4189 0.0102734,-0.8376 0.0308333,-1.2559 0.0205599,-0.4185 0.0513672,-0.8362 0.0924347,-1.2531 0.041055,-0.417 0.092318,-0.8326 0.153789,-1.247 0.061472,-0.4144 0.133073,-0.827 0.214805,-1.2379 0.081732,-0.4109 0.17349,-0.8196 0.275286,-1.2259 0.101797,-0.4064 0.21349,-0.8101 0.335102,-1.211 0.12162,-0.4008 0.25298,-0.7985 0.39412,-1.193 0.14113,-0.3944 0.29186,-0.7852 0.45218,-1.1721 0.16033,-0.3871 0.33004,-0.77 0.50916,-1.1488 0.17911,-0.3786 0.36742,-0.7527 0.56489,-1.1221 0.19749,-0.3696 0.40392,-0.734 0.6193,-1.0933 0.21538,-0.3593 0.43944,-0.7132 0.67219,-1.0616 0.23275,-0.3482 0.47391,-0.6906 0.72346,-1.0272 0.24956,-0.3364 0.50723,-0.6665 0.773,-0.9904 0.26576,-0.3239 0.53932,-0.641 0.82065,-0.9514 0.28134,-0.3104 0.57013,-0.6137 0.86638,-0.91 0.29621,-0.2962 0.59953,-0.585 0.90996,-0.8663 0.3104,-0.2814 0.62753,-0.555 0.95135,-0.8208 0.32386,-0.2656 0.65401,-0.5233 0.99051,-0.7729 0.3365,-0.2495 0.6789,-0.4907 1.0272,-0.7235 0.3484,-0.2326 0.7022,-0.4567 1.0615,-0.6721 0.3594,-0.2153 0.7238,-0.4218 1.0932,-0.6193 0.3695,-0.1975 0.7436,-0.3858 1.1223,-0.5649 0.3787,-0.1791 0.7616,-0.3488 1.1487,-0.5091 0.387,-0.1603 0.7777,-0.3111 1.1722,-0.4523 0.3945,-0.1411 0.7921,-0.2724 1.193,-0.394 0.4009,-0.1217 0.8045,-0.2334 1.2108,-0.3352 0.4065,-0.1017 0.8151,-0.1935 1.2259,-0.2753 0.411,-0.0817 0.8237,-0.1533 1.2381,-0.2147 0.4143,-0.0616 0.83,-0.1128 1.2469,-0.1538 0.4169,-0.0411 0.8346,-0.0719 1.253,-0.0925 0.4185,-0.0206 0.8372,-0.0309 1.2561,-0.0309 h 0.2103 c 0.4189,0 0.8376,-0.0102 1.2561,-0.0307 0.4183,-0.0206 0.836,-0.0514 1.253,-0.0925 0.4169,-0.0411 0.8325,-0.0923 1.2469,-0.1538 0.4144,-0.0614 0.827,-0.133 1.238,-0.2148 0.4108,-0.0817 0.8195,-0.1735 1.2259,-0.2753 0.4063,-0.1017 0.8099,-0.2134 1.2109,-0.3351 0.4008,-0.1216 0.7985,-0.2529 1.1929,-0.394 0.3945,-0.1412 0.7853,-0.292 1.1723,-0.4523 0.3871,-0.1603 0.77,-0.33 1.1486,-0.5091 0.3788,-0.1792 0.7529,-0.3675 1.1223,-0.5649 0.3695,-0.1975 0.7339,-0.404 1.0932,-0.6193 0.3594,-0.2154 0.7132,-0.4395 1.0615,-0.6723 0.3484,-0.2327 0.6908,-0.4738 1.0272,-0.7235 0.3366,-0.2495 0.6668,-0.5071 0.9906,-0.7729 0.3238,-0.2658 0.6409,-0.5393 0.9513,-0.8206 0.3104,-0.2813 0.6137,-0.5702 0.91,-0.8664 0.2963,-0.2962 0.585,-0.5995 0.8663,-0.91 0.2814,-0.3104 0.5549,-0.6275 0.8207,-0.9513 0.2658,-0.3238 0.5235,-0.654 0.773,-0.9906 0.2496,-0.3364 0.4908,-0.6788 0.7234,-1.0272 0.2328,-0.3483 0.4569,-0.7021 0.6723,-1.0614 0.2154,-0.3594 0.4218,-0.7239 0.6192,-1.0933 0.1975,-0.3694 0.3858,-0.7435 0.5649,-1.1223 0.1792,-0.3786 0.3489,-0.7615 0.5092,-1.1486 0.1604,-0.3871 0.3111,-0.7778 0.4521,-1.1723 0.1412,-0.3943 0.2726,-0.792 0.3943,-1.193 0.1215,-0.4008 0.2332,-0.8044 0.335,-1.2108 0.1018,-0.4064 0.1936,-0.8151 0.2753,-1.2259 0.0817,-0.4109 0.1533,-0.8236 0.2149,-1.238 0.0614,-0.4144 0.1127,-0.8301 0.1537,-1.2469 0.0411,-0.4169 0.0719,-0.8346 0.0924,-1.2531 0.0205,-0.4184 0.0309,-0.8371 0.0309,-1.2561 v -0.8528 c 0,-0.4189 0.0102,-0.8376 0.0308,-1.2561 0.0206,-0.4184 0.0514,-0.8361 0.0924,-1.253 0.041,-0.4169 0.0924,-0.8326 0.1539,-1.2469 0.0615,-0.4144 0.133,-0.8271 0.2147,-1.2381 0.0817,-0.4108 0.1735,-0.8194 0.2753,-1.2259 0.1018,-0.4063 0.2136,-0.8099 0.3352,-1.2108 0.1216,-0.4009 0.253,-0.7985 0.3941,-1.193 0.141,-0.3945 0.2917,-0.7852 0.4521,-1.1722 0.1604,-0.3871 0.3301,-0.77 0.5092,-1.1487 0.1791,-0.3787 0.3674,-0.7528 0.5649,-1.1223 0.1974,-0.3694 0.4038,-0.7338 0.6192,-1.0932 0.2154,-0.3593 0.4395,-0.7131 0.6723,-1.0615 0.2328,-0.3483 0.4739,-0.6907 0.7234,-1.0272 0.2495,-0.3365 0.5072,-0.66665 0.773,-0.99051 0.2658,-0.32382 0.5393,-0.64095 0.8207,-0.95135 0.2814,-0.31043 0.5701,-0.61375 0.8663,-0.90996 0.2963,-0.29625 0.5996,-0.58504 0.91,-0.86638 0.3104,-0.28133 0.6275,-0.55488 0.9513,-0.82065 0.3239,-0.26577 0.6541,-0.52344 0.9906,-0.773 C 62.0928,4.788 62.4352,4.54684 62.7835,4.31409 63.1319,4.08134 63.4857,3.85728 63.845,3.6419 64.2043,3.42652 64.5687,3.22009 64.9382,3.0226 65.3077,2.82513 65.6818,2.63682 66.0605,2.45771 66.4392,2.27859 66.8221,2.10888 67.209,1.94855 67.5961,1.78823 67.9869,1.6375 68.3814,1.49637 68.7758,1.35523 69.1735,1.22387 69.5743,1.10225 69.9753,0.980638 70.379,0.868945 70.7854,0.767148 71.1917,0.665352 71.6003,0.573594 72.0113,0.491862 72.4221,0.41013 72.8347,0.338529 73.2491,0.277057 73.6635,0.215586 74.0792,0.164323 74.4962,0.123268 74.9131,0.0822005 75.3307,0.0513932 75.7492,0.0308333 76.1676,0.0102734 76.5862,0 77.0051,0 Z"
                     id="Inside-Shape"
                     fill="#023e2e"
                     fill-rule="evenodd"
                     stroke="none" />
                  <g
                     id="Mask-group">
                    <path
                       d="M 77.0051,0 H 266.136 c 0.419,0 0.837,0.0102734 1.256,0.0308333 0.419,0.0205599 0.836,0.0513672 1.253,0.0924347 0.416,0.041055 0.832,0.092318 1.247,0.153789 0.414,0.061472 0.827,0.133073 1.238,0.214805 0.41,0.081732 0.819,0.17349 1.225,0.275286 0.407,0.101797 0.811,0.21349 1.212,0.335102 0.4,0.12162 0.798,0.25298 1.193,0.39412 0.395,0.14113 0.785,0.29186 1.172,0.45218 0.387,0.16033 0.77,0.33004 1.149,0.50916 0.379,0.17911 0.752,0.36742 1.121,0.56489 0.37,0.19749 0.734,0.40392 1.094,0.6193 0.36,0.21538 0.713,0.43944 1.062,0.67219 0.348,0.23275 0.69,0.47391 1.027,0.72346 0.337,0.24956 0.667,0.50723 0.99,0.773 0.324,0.26577 0.642,0.53932 0.952,0.82065 0.31,0.28134 0.613,0.57013 0.91,0.86638 0.296,0.29621 0.584,0.59953 0.865,0.90996 0.282,0.3104 0.556,0.62753 0.821,0.95135 0.266,0.32386 0.524,0.65401 0.773,0.99051 0.25,0.3365 0.492,0.6789 0.724,1.0272 0.233,0.3484 0.457,0.7022 0.672,1.0615 0.215,0.3594 0.422,0.7238 0.62,1.0932 0.197,0.3695 0.385,0.7436 0.565,1.1223 0.178,0.3787 0.348,0.7616 0.508,1.1487 0.161,0.387 0.311,0.7777 0.452,1.1722 0.142,0.3945 0.273,0.7921 0.395,1.193 0.121,0.4009 0.233,0.8045 0.334,1.2108 0.103,0.4065 0.195,0.8151 0.277,1.2259 0.082,0.411 0.153,0.8237 0.215,1.2381 0.061,0.4143 0.112,0.83 0.153,1.2469 0.041,0.4169 0.072,0.8346 0.092,1.253 0.021,0.4185 0.031,0.8372 0.031,1.2561 V 209.164 c 0,0.383 -0.009,0.767 -0.029,1.15 -0.018,0.384 -0.046,0.767 -0.083,1.149 -0.038,0.381 -0.085,0.762 -0.142,1.142 -0.056,0.38 -0.121,0.758 -0.196,1.135 -0.075,0.375 -0.16,0.749 -0.253,1.123 -0.093,0.372 -0.196,0.741 -0.307,1.109 -0.112,0.367 -0.232,0.731 -0.36,1.092 -0.13,0.362 -0.268,0.72 -0.415,1.074 -0.147,0.355 -0.302,0.706 -0.466,1.053 -0.165,0.347 -0.338,0.69 -0.519,1.029 -0.181,0.338 -0.369,0.671 -0.566,1 -0.198,0.33 -0.404,0.654 -0.616,0.973 -0.213,0.319 -0.434,0.633 -0.663,0.942 -0.228,0.308 -0.464,0.61 -0.708,0.906 -0.243,0.297 -0.494,0.588 -0.753,0.872 -0.257,0.285 -0.521,0.563 -0.793,0.835 -0.272,0.27 -0.55,0.535 -0.833,0.793 -0.284,0.257 -0.575,0.508 -0.872,0.751 -0.297,0.244 -0.6,0.48 -0.908,0.708 -0.308,0.229 -0.622,0.45 -0.94,0.664 -0.32,0.213 -0.644,0.418 -0.973,0.615 -0.33,0.198 -0.664,0.387 -1.002,0.568 -0.339,0.181 -0.682,0.353 -1.029,0.517 -0.346,0.164 -0.696,0.319 -1.051,0.466 -0.355,0.148 -0.713,0.286 -1.074,0.415 -0.362,0.13 -0.726,0.25 -1.094,0.362 -0.367,0.111 -0.737,0.214 -1.109,0.307 -0.372,0.093 -0.747,0.177 -1.123,0.251 -0.377,0.075 -0.755,0.141 -1.135,0.198 -0.379,0.055 -0.76,0.102 -1.142,0.14 -0.382,0.037 -0.765,0.066 -1.149,0.085 -0.383,0.018 -0.766,0.028 -1.15,0.029 h -0.003 c -0.384,0 -0.767,0.009 -1.151,0.027 -0.383,0.02 -0.766,0.048 -1.148,0.086 -0.382,0.037 -0.763,0.084 -1.142,0.14 -0.38,0.056 -0.758,0.122 -1.135,0.198 -0.376,0.074 -0.751,0.157 -1.123,0.25 -0.372,0.094 -0.742,0.196 -1.109,0.308 -0.368,0.111 -0.732,0.232 -1.092,0.361 -0.362,0.129 -0.721,0.267 -1.076,0.415 -0.353,0.147 -0.704,0.302 -1.051,0.466 -0.347,0.164 -0.69,0.336 -1.029,0.517 -0.338,0.181 -0.672,0.371 -1.002,0.569 -0.329,0.196 -0.652,0.401 -0.971,0.614 -0.32,0.214 -0.634,0.435 -0.942,0.664 -0.308,0.228 -0.611,0.465 -0.908,0.708 -0.296,0.244 -0.586,0.494 -0.87,0.751 -0.285,0.258 -0.563,0.523 -0.835,0.794 -0.271,0.272 -0.535,0.55 -0.794,0.834 -0.257,0.285 -0.507,0.575 -0.75,0.872 -0.244,0.296 -0.48,0.598 -0.709,0.907 -0.228,0.308 -0.45,0.622 -0.664,0.942 -0.212,0.318 -0.418,0.642 -0.616,0.972 -0.197,0.329 -0.385,0.663 -0.566,1 -0.181,0.34 -0.354,0.683 -0.517,1.03 -0.165,0.347 -0.321,0.698 -0.468,1.053 -0.147,0.354 -0.285,0.711 -0.413,1.073 -0.13,0.361 -0.25,0.725 -0.362,1.092 -0.111,0.368 -0.214,0.738 -0.307,1.11 -0.093,0.373 -0.178,0.747 -0.253,1.123 -0.074,0.376 -0.139,0.755 -0.196,1.135 -0.056,0.38 -0.103,0.76 -0.142,1.141 -0.037,0.383 -0.065,0.766 -0.083,1.149 -0.02,0.383 -0.029,0.767 -0.029,1.15 v 0.004 c 0,0.384 -0.009,0.768 -0.028,1.152 -0.019,0.383 -0.047,0.765 -0.085,1.147 -0.037,0.382 -0.084,0.763 -0.14,1.143 -0.057,0.379 -0.123,0.757 -0.198,1.133 -0.075,0.377 -0.159,0.751 -0.252,1.123 -0.094,0.373 -0.196,0.743 -0.306,1.11 -0.111,0.367 -0.232,0.732 -0.362,1.094 -0.129,0.36 -0.268,0.718 -0.414,1.073 -0.147,0.355 -0.303,0.706 -0.466,1.053 -0.164,0.347 -0.337,0.69 -0.517,1.028 -0.181,0.339 -0.371,0.672 -0.569,1.001 -0.197,0.329 -0.402,0.653 -0.616,0.973 -0.213,0.319 -0.433,0.632 -0.662,0.94 -0.229,0.309 -0.465,0.611 -0.708,0.908 -0.244,0.297 -0.494,0.588 -0.751,0.873 -0.259,0.284 -0.524,0.562 -0.796,0.832 -0.27,0.272 -0.548,0.537 -0.832,0.794 -0.285,0.258 -0.576,0.509 -0.873,0.753 -0.297,0.243 -0.599,0.479 -0.907,0.708 -0.308,0.229 -0.621,0.449 -0.941,0.662 -0.318,0.214 -0.643,0.419 -0.973,0.616 -0.329,0.198 -0.662,0.388 -1.001,0.569 -0.338,0.18 -0.681,0.353 -1.028,0.517 -0.347,0.163 -0.698,0.319 -1.053,0.466 -0.354,0.146 -0.712,0.285 -1.073,0.414 -0.362,0.129 -0.726,0.249 -1.093,0.36 -0.367,0.112 -0.738,0.214 -1.111,0.308 -0.372,0.093 -0.746,0.177 -1.123,0.252 -0.375,0.075 -0.753,0.141 -1.133,0.196 -0.38,0.057 -0.761,0.105 -1.143,0.142 -0.382,0.038 -0.764,0.066 -1.147,0.085 -0.384,0.019 -0.768,0.028 -1.152,0.028 H 25.5983 c -0.4189,0 -0.8376,-0.011 -1.2561,-0.031 -0.4184,-0.02 -0.8361,-0.051 -1.253,-0.092 -0.4169,-0.041 -0.8326,-0.092 -1.2469,-0.154 -0.4144,-0.061 -0.8271,-0.133 -1.2381,-0.215 -0.4108,-0.082 -0.8194,-0.173 -1.2259,-0.275 -0.4063,-0.102 -0.8099,-0.214 -1.2108,-0.336 -0.4009,-0.122 -0.7985,-0.253 -1.193,-0.394 -0.3945,-0.141 -0.7852,-0.292 -1.1722,-0.452 -0.3871,-0.161 -0.77,-0.33 -1.1487,-0.509 -0.3787,-0.179 -0.7528,-0.367 -1.1223,-0.565 -0.3694,-0.198 -0.7338,-0.404 -1.0932,-0.619 -0.3593,-0.215 -0.7131,-0.439 -1.0615,-0.673 -0.3483,-0.232 -0.6907,-0.473 -1.0272,-0.723 -0.3365,-0.25 -0.66665,-0.507 -0.99051,-0.772 -0.32382,-0.266 -0.64095,-0.54 -0.95135,-0.821 C 8.09711,272.612 7.79379,272.323 7.49755,272.027 7.20133,271.732 6.91254,271.428 6.6312,271.118 6.34987,270.807 6.07631,270.49 5.81055,270.165 5.54478,269.842 5.28711,269.512 5.03755,269.176 4.788,268.839 4.54684,268.496 4.31409,268.148 4.08134,267.8 3.85728,267.446 3.6419,267.087 3.42652,266.727 3.22009,266.363 3.0226,265.994 2.82513,265.625 2.63682,265.25 2.45771,264.871 2.27859,264.492 2.10888,264.11 1.94855,263.723 1.78823,263.336 1.6375,262.945 1.49637,262.55 1.35523,262.155 1.22387,261.758 1.10225,261.357 0.980638,260.957 0.868945,260.553 0.767148,260.147 0.665352,259.74 0.573594,259.331 0.491862,258.92 0.41013,258.509 0.338529,258.097 0.277057,257.683 0.215586,257.269 0.164323,256.853 0.123268,256.435 0.0822005,256.019 0.0513932,255.601 0.0308333,255.183 0.0102734,254.764 0,254.345 0,253.926 V 77.6477 c 0,-0.4189 0.0102734,-0.8376 0.0308333,-1.2559 0.0205599,-0.4185 0.0513672,-0.8362 0.0924347,-1.2531 0.041055,-0.417 0.092318,-0.8326 0.153789,-1.247 0.061472,-0.4144 0.133073,-0.827 0.214805,-1.2379 0.081732,-0.4109 0.17349,-0.8196 0.275286,-1.2259 0.101797,-0.4064 0.21349,-0.8101 0.335102,-1.211 0.12162,-0.4008 0.25298,-0.7985 0.39412,-1.193 0.14113,-0.3944 0.29186,-0.7852 0.45218,-1.1721 0.16033,-0.3871 0.33004,-0.77 0.50916,-1.1488 0.17911,-0.3786 0.36742,-0.7527 0.56489,-1.1221 0.19749,-0.3696 0.40392,-0.734 0.6193,-1.0933 0.21538,-0.3593 0.43944,-0.7132 0.67219,-1.0616 0.23275,-0.3482 0.47391,-0.6906 0.72346,-1.0272 0.24956,-0.3364 0.50723,-0.6665 0.773,-0.9904 0.26576,-0.3239 0.53932,-0.641 0.82065,-0.9514 0.28134,-0.3104 0.57013,-0.6137 0.86638,-0.91 0.29621,-0.2962 0.59953,-0.585 0.90996,-0.8663 0.3104,-0.2814 0.62753,-0.555 0.95135,-0.8208 0.32386,-0.2656 0.65401,-0.5233 0.99051,-0.7729 0.3365,-0.2495 0.6789,-0.4907 1.0272,-0.7235 0.3484,-0.2326 0.7022,-0.4567 1.0615,-0.6721 0.3594,-0.2153 0.7238,-0.4218 1.0932,-0.6193 0.3695,-0.1975 0.7436,-0.3858 1.1223,-0.5649 0.3787,-0.1791 0.7616,-0.3488 1.1487,-0.5091 0.387,-0.1603 0.7777,-0.3111 1.1722,-0.4523 0.3945,-0.1411 0.7921,-0.2724 1.193,-0.394 0.4009,-0.1217 0.8045,-0.2334 1.2108,-0.3352 0.4065,-0.1017 0.8151,-0.1935 1.2259,-0.2753 0.411,-0.0817 0.8237,-0.1533 1.2381,-0.2147 0.4143,-0.0616 0.83,-0.1128 1.2469,-0.1538 0.4169,-0.0411 0.8346,-0.0719 1.253,-0.0925 0.4185,-0.0206 0.8372,-0.0309 1.2561,-0.0309 h 0.2103 c 0.4189,0 0.8376,-0.0102 1.2561,-0.0307 0.4183,-0.0206 0.836,-0.0514 1.253,-0.0925 0.4169,-0.0411 0.8325,-0.0923 1.2469,-0.1538 0.4144,-0.0614 0.827,-0.133 1.238,-0.2148 0.4108,-0.0817 0.8195,-0.1735 1.2259,-0.2753 0.4063,-0.1017 0.8099,-0.2134 1.2109,-0.3351 0.4008,-0.1216 0.7985,-0.2529 1.1929,-0.394 0.3945,-0.1412 0.7853,-0.292 1.1723,-0.4523 0.3871,-0.1603 0.77,-0.33 1.1486,-0.5091 0.3788,-0.1792 0.7529,-0.3675 1.1223,-0.5649 0.3695,-0.1975 0.7339,-0.404 1.0932,-0.6193 0.3594,-0.2154 0.7132,-0.4395 1.0615,-0.6723 0.3484,-0.2327 0.6908,-0.4738 1.0272,-0.7235 0.3366,-0.2495 0.6668,-0.5071 0.9906,-0.7729 0.3238,-0.2658 0.6409,-0.5393 0.9513,-0.8206 0.3104,-0.2813 0.6137,-0.5702 0.91,-0.8664 0.2963,-0.2962 0.585,-0.5995 0.8663,-0.91 0.2814,-0.3104 0.5549,-0.6275 0.8207,-0.9513 0.2658,-0.3238 0.5235,-0.654 0.773,-0.9906 0.2496,-0.3364 0.4908,-0.6788 0.7234,-1.0272 0.2328,-0.3483 0.4569,-0.7021 0.6723,-1.0614 0.2154,-0.3594 0.4218,-0.7239 0.6192,-1.0933 0.1975,-0.3694 0.3858,-0.7435 0.5649,-1.1223 0.1792,-0.3786 0.3489,-0.7615 0.5092,-1.1486 0.1604,-0.3871 0.3111,-0.7778 0.4521,-1.1723 0.1412,-0.3943 0.2726,-0.792 0.3943,-1.193 0.1215,-0.4008 0.2332,-0.8044 0.335,-1.2108 0.1018,-0.4064 0.1936,-0.8151 0.2753,-1.2259 0.0817,-0.4109 0.1533,-0.8236 0.2149,-1.238 0.0614,-0.4144 0.1127,-0.8301 0.1537,-1.2469 0.0411,-0.4169 0.0719,-0.8346 0.0924,-1.2531 0.0205,-0.4184 0.0309,-0.8371 0.0309,-1.2561 v -0.8528 c 0,-0.4189 0.0102,-0.8376 0.0308,-1.2561 0.0206,-0.4184 0.0514,-0.8361 0.0924,-1.253 0.041,-0.4169 0.0924,-0.8326 0.1539,-1.2469 0.0615,-0.4144 0.133,-0.8271 0.2147,-1.2381 0.0817,-0.4108 0.1735,-0.8194 0.2753,-1.2259 0.1018,-0.4063 0.2136,-0.8099 0.3352,-1.2108 0.1216,-0.4009 0.253,-0.7985 0.3941,-1.193 0.141,-0.3945 0.2917,-0.7852 0.4521,-1.1722 0.1604,-0.3871 0.3301,-0.77 0.5092,-1.1487 0.1791,-0.3787 0.3674,-0.7528 0.5649,-1.1223 0.1974,-0.3694 0.4038,-0.7338 0.6192,-1.0932 0.2154,-0.3593 0.4395,-0.7131 0.6723,-1.0615 0.2328,-0.3483 0.4739,-0.6907 0.7234,-1.0272 0.2495,-0.3365 0.5072,-0.66665 0.773,-0.99051 0.2658,-0.32382 0.5393,-0.64095 0.8207,-0.95135 0.2814,-0.31043 0.5701,-0.61375 0.8663,-0.90996 0.2963,-0.29625 0.5996,-0.58504 0.91,-0.86638 0.3104,-0.28133 0.6275,-0.55488 0.9513,-0.82065 0.3239,-0.26577 0.6541,-0.52344 0.9906,-0.773 C 62.0928,4.788 62.4352,4.54684 62.7835,4.31409 63.1319,4.08134 63.4857,3.85728 63.845,3.6419 64.2043,3.42652 64.5687,3.22009 64.9382,3.0226 65.3077,2.82513 65.6818,2.63682 66.0605,2.45771 66.4392,2.27859 66.8221,2.10888 67.209,1.94855 67.5961,1.78823 67.9869,1.6375 68.3814,1.49637 68.7758,1.35523 69.1735,1.22387 69.5743,1.10225 69.9753,0.980638 70.379,0.868945 70.7854,0.767148 71.1917,0.665352 71.6003,0.573594 72.0113,0.491862 72.4221,0.41013 72.8347,0.338529 73.2491,0.277057 73.6635,0.215586 74.0792,0.164323 74.4962,0.123268 74.9131,0.0822005 75.3307,0.0513932 75.7492,0.0308333 76.1676,0.0102734 76.5862,0 77.0051,0 Z"
                       id="path25"
                       fill="none"
                       fill-rule="evenodd"
                       stroke="none" />
                    <g
                       clip-path="url(#mask_2)"
                       id="g34">
                      <g
                         id="Group"
                         transform="translate(25.081787,28.24939)">
                        <g
                           id="HEX#1">
                          <g
                             id="110">
                            <path
                               d="m 181.25,96.0262 c 3.529,1.3292 7.444,1.9938 11.746,1.9938 6.235,0 11.756,-1.0634 16.565,-3.19 4.809,-2.1266 9.002,-4.942 12.579,-8.4463 3.576,-3.5041 6.573,-7.5157 8.989,-12.0349 2.417,-4.5192 4.375,-9.1955 5.873,-14.0288 1.499,-4.8334 2.574,-9.6184 3.227,-14.3549 0.652,-4.7367 0.978,-9.0625 0.978,-12.9775 0,-5.6068 -0.7,-10.4764 -2.102,-14.6089 -1.402,-4.1324 -3.36,-7.5641 -5.873,-10.29498 C 230.719,5.3529 227.686,3.32292 224.134,1.99375 220.582,0.664583 216.679,0 212.424,0 c -6.235,0 -11.756,1.06333 -16.565,3.19 -4.809,2.12664 -9.002,4.94208 -12.579,8.4463 -3.576,3.5041 -6.585,7.5158 -9.027,12.0349 -2.44,4.5192 -4.41,9.1833 -5.908,13.9925 -1.498,4.8092 -2.574,9.5943 -3.226,14.3551 -0.653,4.7608 -0.979,9.0987 -0.979,13.0137 0,5.6067 0.701,10.4763 2.103,14.6087 1.401,4.1325 3.37,7.5642 5.907,10.2951 2.539,2.7308 5.572,4.7608 9.1,6.0899 z M 0,96.3526 3.1175,80.62 h 24.215 L 39.5125,19.72 16.0224,31.32 12.325,16.8925 45.6026,1.01501 H 61.335 L 45.4575,80.62 H 66.265 l -3.1176,15.7326 z m 81.635,0 L 84.7524,80.62 H 108.967 L 121.147,19.72 97.6574,31.32 93.9599,16.8925 127.238,1.01501 H 142.97 L 127.092,80.62 H 147.9 l -3.118,15.7326 z M 199.556,17.8351 c 3.021,-2.2716 6.417,-3.4074 10.188,-3.4074 3.769,0 6.765,1.0996 8.989,3.2987 2.223,2.1992 3.625,5.5463 4.205,10.0413 l -39.875,25.23 c 0.628,-4.6401 1.667,-9.2559 3.117,-13.8475 1.45,-4.5917 3.287,-8.7242 5.51,-12.3976 2.224,-3.6733 4.846,-6.6458 7.866,-8.9175 z m 3.154,64.1985 c -2.175,1.0392 -4.52,1.5587 -7.033,1.5587 -3.769,0 -6.766,-1.0874 -8.989,-3.2624 -2.223,-2.175 -3.649,-5.5342 -4.279,-10.0775 l 39.948,-25.3026 c -0.483,3.1418 -1.124,6.2714 -1.921,9.3889 -0.798,3.1174 -1.764,6.102 -2.9,8.9537 -1.135,2.8516 -2.44,5.5099 -3.915,7.9749 -1.473,2.465 -3.116,4.6159 -4.929,6.4526 -1.812,1.8367 -3.806,3.2746 -5.982,4.3137 z"
                               id="Shape"
                               fill="#ffffff"
                               fill-rule="evenodd"
                               stroke="none" />
                          </g>
                          <g
                             id="101"
                             transform="translate(0,121.17322)">
                            <path
                               d="m 111.36,98.02 c -4.302,0 -8.217,-0.6644 -11.7451,-1.9934 -3.5284,-1.3289 -6.5613,-3.3592 -9.0987,-6.091 -2.5375,-2.7307 -4.5071,-6.1623 -5.9087,-10.2947 -1.4018,-4.1324 -2.1026,-9.0021 -2.1026,-14.609 0,-3.914 0.3262,-8.2518 0.9788,-13.0134 0.6525,-4.7604 1.7279,-9.5453 3.2262,-14.3547 1.4984,-4.8092 3.4679,-9.4734 5.9087,-13.9925 2.4409,-4.5191 5.4497,-8.5308 9.0264,-12.0349 3.577,-3.50424 7.769,-6.31965 12.579,-8.4463 C 119.033,1.06336 124.555,0 130.79,0 c 4.253,0 8.156,0.664635 11.709,1.99391 3.552,1.32914 6.585,3.35911 9.098,6.08989 2.514,2.7309 4.471,6.1625 5.873,10.295 1.402,4.1325 2.102,9.0021 2.102,14.6089 0,3.9149 -0.326,8.2407 -0.978,12.9773 -0.653,4.7365 -1.728,9.5215 -3.227,14.3548 -1.498,4.8333 -3.455,9.5095 -5.872,14.0287 -2.417,4.5193 -5.413,8.5311 -8.99,12.0355 -3.577,3.5043 -7.77,6.3198 -12.579,8.4463 -4.809,2.1265 -10.331,3.1897 -16.566,3.1897 z M 0,96.3525 3.1175,80.6204 h 24.215 L 39.5125,19.7199 16.0224,31.32 12.325,16.8925 45.6026,1.01501 H 61.335 L 45.4575,80.6204 H 66.265 L 63.1474,96.3525 Z M 166.388,80.6204 163.27,96.3525 h 63.148 l 3.118,-15.7321 H 208.728 L 224.605,1.01501 H 208.873 L 175.595,16.8925 179.293,31.32 202.782,19.7199 190.603,80.6204 Z M 128.107,14.4277 c -3.769,0 -7.165,1.1358 -10.186,3.4074 -3.021,2.2717 -5.643,5.2442 -7.866,8.9175 -2.223,3.6734 -4.06,7.806 -5.51,12.3977 -1.45,4.5921 -2.489,9.2081 -3.118,13.8479 l 39.876,-25.2305 c -0.58,-4.495 -1.982,-7.8421 -4.205,-10.0413 -2.224,-2.1991 -5.22,-3.2987 -8.991,-3.2987 z m -14.064,69.164 c 2.513,0 4.857,-0.5194 7.032,-1.5582 2.175,-1.0388 4.169,-2.4764 5.981,-4.3128 1.813,-1.8375 3.456,-3.9884 4.93,-6.4528 1.475,-2.4656 2.78,-5.124 3.915,-7.9753 1.136,-2.8513 2.103,-5.8357 2.9,-8.9532 0.798,-3.1175 1.438,-6.2475 1.922,-9.3901 l -39.948,25.3031 c 0.628,4.5431 2.054,7.9024 4.278,10.0779 2.223,2.1743 5.22,3.2614 8.99,3.2614 z"
                               id="path29"
                               fill="#ffffff"
                               fill-rule="evenodd"
                               stroke="none" />
                          </g>
                        </g>
                      </g>
                    </g>
                  </g>
                </g>
              </g>
              <g
                 id="Pencil"
                 transform="translate(226.4939,129.88782)">
                <g
                   id="Body"
                   transform="translate(9.804932)">
                  <path
                     d="m 196.876,8.76688 0.554,0.49893 c 0.415,0.37374 0.821,0.75749 1.217,1.15119 0.396,0.3936 0.783,0.7968 1.159,1.2095 0.377,0.4126 0.743,0.8343 1.098,1.2649 0.356,0.4307 0.701,0.8698 1.035,1.3174 0.335,0.4475 0.658,0.903 0.969,1.3664 0.312,0.4635 0.613,0.9343 0.901,1.4125 0.289,0.4781 0.566,0.9631 0.831,1.4548 0.265,0.4918 0.518,0.9898 0.758,1.494 0.241,0.5042 0.468,1.0139 0.684,1.5292 0.215,0.5155 0.418,1.0358 0.608,1.5611 0.19,0.5253 0.367,1.055 0.531,1.589 0.163,0.534 0.314,1.0717 0.452,1.6131 0.137,0.5414 0.261,1.0859 0.372,1.6334 0.111,0.5475 0.208,1.0974 0.292,1.6496 0.084,0.5523 0.154,1.1063 0.21,1.662 0.057,0.5557 0.1,1.1124 0.129,1.6703 0.029,0.5578 0.045,1.116 0.047,1.6747 0.002,0.5586 -0.01,1.1168 -0.036,1.6748 -0.025,0.558 -0.065,1.1151 -0.118,1.6711 -0.053,0.5561 -0.119,1.1106 -0.199,1.6633 -0.08,0.5529 -0.174,1.1034 -0.281,1.6516 -0.107,0.5482 -0.228,1.0935 -0.362,1.6358 -0.134,0.5422 -0.281,1.0808 -0.442,1.6159 -0.16,0.5352 -0.333,1.066 -0.52,1.5924 -0.186,0.5266 -0.386,1.0483 -0.598,1.5651 -0.212,0.5167 -0.436,1.028 -0.673,1.5337 -0.238,0.5057 -0.487,1.0053 -0.749,1.4989 -0.262,0.4935 -0.535,0.9802 -0.821,1.4603 -0.285,0.48 -0.583,0.9528 -0.891,1.4182 -0.309,0.4655 -0.629,0.9231 -0.961,1.373 -0.331,0.4497 -0.673,0.891 -1.026,1.3239 -0.353,0.433 -0.716,0.8571 -1.09,1.2722 L 51.2836,222.587 0,176.411 148.672,11.2931 c 0.374,-0.4151 0.758,-0.8208 1.152,-1.2171 0.393,-0.3963 0.797,-0.78265 1.209,-1.15906 0.413,-0.37648 0.835,-0.74266 1.265,-1.09849 0.431,-0.35575 0.87,-0.70073 1.317,-1.03492 0.448,-0.33421 0.903,-0.65723 1.367,-0.96905 0.463,-0.31191 0.934,-0.61223 1.412,-0.90096 0.479,-0.28873 0.964,-0.56559 1.455,-0.83055 0.492,-0.2649 0.99,-0.51759 1.494,-0.75809 0.504,-0.2405 1.014,-0.46847 1.53,-0.6839 0.515,-0.21545 1.035,-0.41812 1.561,-0.60805 0.525,-0.18983 1.054,-0.36672 1.589,-0.53064 0.533,-0.16389 1.071,-0.31459 1.613,-0.45211 0.541,-0.137485 1.085,-0.261625 1.633,-0.37238 0.547,-0.110769 1.097,-0.208034 1.65,-0.29181 0.552,-0.083776 1.106,-0.153946 1.662,-0.210521 0.555,-0.056563 1.112,-0.0994664 1.67,-0.1286982 0.558,-0.0292187 1.116,-0.04476559 1.675,-0.046588508 0.558,-0.001822922 1.116,0.010039108 1.674,0.035625008 0.558,0.0255729 1.115,0.0648437 1.672,0.1177867 0.556,0.052916 1.11,0.119466 1.663,0.199622 0.553,0.080156 1.103,0.173815 1.651,0.281003 0.549,0.1072 1.094,0.227747 1.636,0.361641 0.542,0.13397 1.081,0.28115 1.616,0.44155 0.535,0.16039 1.066,0.33383 1.593,0.5203 0.526,0.18648 1.048,0.38574 1.565,0.59777 0.516,0.21211 1.028,0.43676 1.533,0.67393 0.506,0.23717 1.006,0.48659 1.499,0.74826 0.494,0.26176 0.98,0.53543 1.46,0.82102 0.481,0.28559 0.953,0.58278 1.419,0.89157 0.465,0.30887 0.923,0.62895 1.373,0.96024 0.449,0.33121 0.891,0.67332 1.324,1.02631 0.433,0.35297 0.857,0.71633 1.272,1.09007 z"
                     id="Mask"
                     fill="#fdb600"
                     fill-rule="evenodd"
                     stroke="none" />
                  <g
                     id="g48">
                    <path
                       d="m 196.876,8.76688 0.554,0.49893 c 0.415,0.37374 0.821,0.75749 1.217,1.15119 0.396,0.3936 0.783,0.7968 1.159,1.2095 0.377,0.4126 0.743,0.8343 1.098,1.2649 0.356,0.4307 0.701,0.8698 1.035,1.3174 0.335,0.4475 0.658,0.903 0.969,1.3664 0.312,0.4635 0.613,0.9343 0.901,1.4125 0.289,0.4781 0.566,0.9631 0.831,1.4548 0.265,0.4918 0.518,0.9898 0.758,1.494 0.241,0.5042 0.468,1.0139 0.684,1.5292 0.215,0.5155 0.418,1.0358 0.608,1.5611 0.19,0.5253 0.367,1.055 0.531,1.589 0.163,0.534 0.314,1.0717 0.452,1.6131 0.137,0.5414 0.261,1.0859 0.372,1.6334 0.111,0.5475 0.208,1.0974 0.292,1.6496 0.084,0.5523 0.154,1.1063 0.21,1.662 0.057,0.5557 0.1,1.1124 0.129,1.6703 0.029,0.5578 0.045,1.116 0.047,1.6747 0.002,0.5586 -0.01,1.1168 -0.036,1.6748 -0.025,0.558 -0.065,1.1151 -0.118,1.6711 -0.053,0.5561 -0.119,1.1106 -0.199,1.6633 -0.08,0.5529 -0.174,1.1034 -0.281,1.6516 -0.107,0.5482 -0.228,1.0935 -0.362,1.6358 -0.134,0.5422 -0.281,1.0808 -0.442,1.6159 -0.16,0.5352 -0.333,1.066 -0.52,1.5924 -0.186,0.5266 -0.386,1.0483 -0.598,1.5651 -0.212,0.5167 -0.436,1.028 -0.673,1.5337 -0.238,0.5057 -0.487,1.0053 -0.749,1.4989 -0.262,0.4935 -0.535,0.9802 -0.821,1.4603 -0.285,0.48 -0.583,0.9528 -0.891,1.4182 -0.309,0.4655 -0.629,0.9231 -0.961,1.373 -0.331,0.4497 -0.673,0.891 -1.026,1.3239 -0.353,0.433 -0.716,0.8571 -1.09,1.2722 L 51.2836,222.587 0,176.411 148.672,11.2931 c 0.374,-0.4151 0.758,-0.8208 1.152,-1.2171 0.393,-0.3963 0.797,-0.78265 1.209,-1.15906 0.413,-0.37648 0.835,-0.74266 1.265,-1.09849 0.431,-0.35575 0.87,-0.70073 1.317,-1.03492 0.448,-0.33421 0.903,-0.65723 1.367,-0.96905 0.463,-0.31191 0.934,-0.61223 1.412,-0.90096 0.479,-0.28873 0.964,-0.56559 1.455,-0.83055 0.492,-0.2649 0.99,-0.51759 1.494,-0.75809 0.504,-0.2405 1.014,-0.46847 1.53,-0.6839 0.515,-0.21545 1.035,-0.41812 1.561,-0.60805 0.525,-0.18983 1.054,-0.36672 1.589,-0.53064 0.533,-0.16389 1.071,-0.31459 1.613,-0.45211 0.541,-0.137485 1.085,-0.261625 1.633,-0.37238 0.547,-0.110769 1.097,-0.208034 1.65,-0.29181 0.552,-0.083776 1.106,-0.153946 1.662,-0.210521 0.555,-0.056563 1.112,-0.0994664 1.67,-0.1286982 0.558,-0.0292187 1.116,-0.04476559 1.675,-0.046588508 0.558,-0.001822922 1.116,0.010039108 1.674,0.035625008 0.558,0.0255729 1.115,0.0648437 1.672,0.1177867 0.556,0.052916 1.11,0.119466 1.663,0.199622 0.553,0.080156 1.103,0.173815 1.651,0.281003 0.549,0.1072 1.094,0.227747 1.636,0.361641 0.542,0.13397 1.081,0.28115 1.616,0.44155 0.535,0.16039 1.066,0.33383 1.593,0.5203 0.526,0.18648 1.048,0.38574 1.565,0.59777 0.516,0.21211 1.028,0.43676 1.533,0.67393 0.506,0.23717 1.006,0.48659 1.499,0.74826 0.494,0.26176 0.98,0.53543 1.46,0.82102 0.481,0.28559 0.953,0.58278 1.419,0.89157 0.465,0.30887 0.923,0.62895 1.373,0.96024 0.449,0.33121 0.891,0.67332 1.324,1.02631 0.433,0.35297 0.857,0.71633 1.272,1.09007 z"
                       id="path40"
                       fill="none"
                       fill-rule="evenodd"
                       stroke="none" />
                    <g
                       clip-path="url(#mask_3)"
                       id="g46">
                      <g
                         id="g44"
                         transform="translate(115.10815,-12.771606)">
                        <path
                           d="M 7.84398,0 66.7255,54.9079 58.8815,63.3195 0,8.41164 Z"
                           transform="translate(0,43.991333)"
                           id="Rectangle"
                           fill="#b6c5cd"
                           fill-rule="evenodd"
                           stroke="none" />
                        <path
                           d="M 52.0195,2.19139 93.876,39.8791 c 0.1037,0.0934 0.2051,0.1894 0.3043,0.2878 0.099,0.0984 0.1956,0.1992 0.2897,0.3023 0.0941,0.1032 0.1856,0.2085 0.2745,0.3162 0.0889,0.1076 0.1752,0.2174 0.2588,0.3293 0.0835,0.1119 0.1642,0.2257 0.2422,0.3416 0.0779,0.1158 0.153,0.2335 0.2251,0.353 0.0723,0.1195 0.1414,0.2408 0.2077,0.3637 0.0662,0.1229 0.1294,0.2474 0.1895,0.3734 0.0601,0.126 0.117,0.2534 0.1708,0.3822 0.054,0.1289 0.1046,0.259 0.1521,0.3903 0.0474,0.1312 0.0916,0.2636 0.1326,0.3971 0.0411,0.1336 0.0787,0.268 0.1131,0.4033 0.0343,0.1353 0.0653,0.2714 0.093,0.4082 0.0277,0.1369 0.0521,0.2744 0.0729,0.4124 0.021,0.138 0.0386,0.2765 0.0526,0.4154 0.0142,0.1389 0.0249,0.2781 0.0323,0.4175 0.0073,0.1395 0.0111,0.279 0.0116,0.4186 5e-4,0.1396 -0.0025,0.2792 -0.0089,0.4187 -0.0064,0.1395 -0.0162,0.2787 -0.0295,0.4177 -0.0132,0.139 -0.0298,0.2776 -0.0498,0.4158 -0.0201,0.1382 -0.0435,0.2758 -0.0702,0.4128 -0.0268,0.1371 -0.057,0.2733 -0.0905,0.4089 -0.0334,0.1356 -0.0702,0.2702 -0.1104,0.4039 -0.0401,0.1337 -0.0834,0.2664 -0.13,0.3981 -0.0466,0.1316 -0.0964,0.262 -0.1494,0.3912 -0.053,0.1291 -0.1092,0.2569 -0.1685,0.3833 -0.0592,0.1265 -0.1216,0.2513 -0.187,0.3747 -0.0654,0.1233 -0.1338,0.245 -0.2053,0.365 -0.0713,0.12 -0.1456,0.2382 -0.2228,0.3545 -0.0772,0.1164 -0.1572,0.2307 -0.24,0.3431 -0.0828,0.1125 -0.1683,0.2229 -0.2565,0.3311 -0.0883,0.1082 -0.1791,0.2142 -0.2725,0.3179 L 54.5369,96.3199 0,47.2147 39.9706,2.82285 C 40.064,2.71909 40.1599,2.61768 40.2583,2.51862 40.3567,2.41957 40.4575,2.323 40.5606,2.22888 40.6637,2.13478 40.7692,2.04327 40.8769,1.95432 40.9845,1.86539 41.0942,1.77917 41.2061,1.69561 41.318,1.61207 41.4318,1.53134 41.5477,1.45337 41.6635,1.37543 41.7812,1.30038 41.9007,1.2282 42.0203,1.15603 42.1415,1.08682 42.2644,1.0206 42.3873,0.954375 42.5118,0.891211 42.6378,0.831107 42.7639,0.771003 42.8913,0.714011 43.0201,0.660143 43.1489,0.606302 43.279,0.555638 43.4103,0.508177 43.5416,0.460703 43.674,0.416484 43.8075,0.375521 43.9409,0.334544 44.0754,0.296875 44.2107,0.2625 44.346,0.228138 44.4821,0.197109 44.619,0.169414 44.7558,0.141732 44.8933,0.117422 45.0313,0.0964844 45.1694,0.0755469 45.3079,0.0580078 45.4468,0.0438672 45.5857,0.0297266 45.7248,0.0189974 45.8643,0.0116797 46.0037,0.00438802 46.1432,5.07813e-4 46.2829,5.20833e-5 46.4225,-4.03646e-4 46.562,0.00255208 46.7015,0.00894532 46.841,0.0153516 46.9802,0.0251563 47.1193,0.0383854 c 0.1389,0.0132292 0.2775,0.0298698 0.4157,0.0498959 0.1382,0.0200387 0.2758,0.0434507 0.4128,0.0702477 0.137,0.026784 0.2733,0.05694 0.4089,0.090416 0.1355,0.03349 0.2702,0.070274 0.4039,0.110352 0.1338,0.040104 0.2665,0.083463 0.3982,0.130065 0.1315,0.046615 0.2619,0.096419 0.3911,0.149427 0.1292,0.053008 0.257,0.109154 0.3833,0.168438 0.1265,0.059284 0.2513,0.12164 0.3747,0.187057 0.1234,0.065406 0.2451,0.133816 0.3651,0.205196 0.12,0.07141 0.2381,0.14569 0.3545,0.22288 0.1163,0.07718 0.2307,0.1572 0.3431,0.24 0.1124,0.08281 0.2228,0.16833 0.331,0.25656 0.1082,0.08822 0.2142,0.17904 0.3179,0.27247 z"
                           transform="translate(8.737548)"
                           id="Eraser"
                           fill="#c6527a"
                           fill-rule="evenodd"
                           stroke="none" />
                      </g>
                    </g>
                  </g>
                </g>
                <path
                   d="M 0,56.9119 6.52281,0 54.5218,43.2185 Z"
                   transform="translate(0,184.07043)"
                   id="Point"
                   fill="#fffdaf"
                   fill-rule="evenodd"
                   stroke="none" />
              </g>
            </g>
          </g>
        </g>
      </g>
    </g>
  </g>
</svg>
